<?xml version="1.0" encoding="utf-8"?>
<!-- Generator: Adobe Illustrator 27.4.0, SVG Export Plug-In . SVG Version: 6.00 Build 0)  -->
<svg version="1.2" baseProfile="tiny" id="Layer_1" xmlns="http://www.w3.org/2000/svg" xmlns:xlink="http://www.w3.org/1999/xlink"
	 x="0px" y="0px" viewBox="0 0 4600 3067" overflow="visible" xml:space="preserve">
<g>
	<g>
		<g>
			<path fill="#A93226" d="M3666.44,1120.18c-27.62-178.31-103.84-346.88-234.99-475.78c-127.21-125.03-297.76-200.68-473.31-219.86
				c-22.13-2.42-44.36-3.94-66.62-4.52c-209.02-5.49-412.83,68.91-568.54,210.92c-78.43,71.53-124.2,185.3-236.55,210.33
				c-130.78,29.13-230.73-81.48-340.35-131.17C1413.96,559.55,982,777.54,843.35,1097.39c-11,25.37-20.35,51.44-27.96,78.03
				c-92.28,322.31,70.4,682.18,318.44,895.54c308.93,265.74,712.63,386.17,1114.15,362.38c152.84-9.06,304.69-36.62,453.59-77.73
				c365.89-101.02,732.81-288.74,891.25-658.6C3669.17,1518.74,3696.43,1313.72,3666.44,1120.18z"/>
		</g>
		<g>
			<g>
				<path fill="#FFFFFF" d="M2101.73,1924.76c-91.41-133.85-153.85-198.09-272.11-298.79c-105.25-89.63-252.66-103.11-385.51-90.38
					c-100.54,9.64-309.36,40.18-347.16,216.96c-25.96,121.41,58.39,493.18,58.39,493.18h574.19v-49.93
					c139.69,136.29,308.07,135.37,386.38,55.96C2187.65,2179.01,2179.12,2038.09,2101.73,1924.76z"/>
			</g>
			<g>
				<path fill="#010101" d="M1972.35,2311.5c-8.92,0-17.98-0.45-27.15-1.36c-36.72-3.64-73.65-14.4-109.78-31.99
					c-35.33-17.19-69.05-40.56-100.39-69.55v37.13c0,3.04-2.46,5.5-5.5,5.5h-574.19c-2.57,0-4.79-1.78-5.36-4.28
					c-0.21-0.93-21.33-94.34-38.99-201.38c-23.79-144.17-30.32-243.14-19.41-294.17c16.75-78.35,68.29-137.23,153.19-175.03
					c69.78-31.06,146.89-41.27,198.82-46.25c168.16-16.12,299.24,14.72,389.6,91.66c115.09,98.01,178.48,161.34,273.08,299.88
					c38.29,56.07,61,120.54,63.97,181.55c3.02,62.25-14.88,116.38-50.41,152.41C2084.19,2291.76,2031.46,2311.5,1972.35,2311.5z
					 M1729.53,2190.3c1.41,0,2.79,0.54,3.84,1.56c63.43,61.89,139.05,100.01,212.92,107.33c66.65,6.62,127.05-12.09,165.72-51.3
					c68.63-69.6,62.26-207.18-14.81-320.04c-93.89-137.49-156.83-200.37-271.13-297.71c-88-74.94-216.33-104.92-381.42-89.09
					c-203.93,19.55-315.9,89.1-342.31,212.64c-23.92,111.89,48.19,444.82,57.42,486.54h564.28v-44.44c0-2.21,1.32-4.21,3.36-5.06
					C1728.08,2190.45,1728.81,2190.3,1729.53,2190.3z"/>
			</g>
			<g>
				<g>
					<path fill="#010101" d="M1155.34,2245.73h574.19c0,0,24.12,40.94,34.92,129.65l-613.99,0L1155.34,2245.73z"/>
				</g>
			</g>
			<g>
				<g>
					<path fill="#010101" d="M1150.46,2380.88c-1.49,0-2.92-0.61-3.96-1.68c-1.04-1.08-1.59-2.53-1.53-4.02l4.88-129.65
						c0.11-2.95,2.54-5.29,5.49-5.29h574.19c1.95,0,3.75,1.03,4.74,2.71c1.01,1.71,24.82,42.95,35.64,131.78
						c0.19,1.56-0.3,3.13-1.34,4.31c-1.04,1.18-2.54,1.85-4.11,1.85L1150.46,2380.88z M1160.63,2251.23l-4.47,118.66l602.04,0
						c-9.24-69.93-26.84-108.54-31.98-118.66H1160.63z"/>
				</g>
			</g>
			<g>
				
					<ellipse transform="matrix(0.7071 -0.7071 0.7071 0.7071 -539.5229 1388.6792)" fill="#010101" cx="1406.52" cy="1345.6" rx="133.65" ry="133.65"/>
			</g>
			<g>
				<path fill="#FFFFFF" d="M1524.99,1549.79l-34.32-100.32c-63.97-0.04-40.35-57.49-40.35-57.49l-29.86-33.58
					c-50.81,19.21-60.76-30.93-60.76-30.93c-51.89,11.12-60.64-31.66-60.64-31.66c-14.29,7.85-30.17,31.67-27.45,55.31
					c11.24,97.64,6.22,176.59,99.2,167.35l10.35,57.29L1524.99,1549.79z"/>
			</g>
			<g>
				<path fill="#010101" d="M1378.11,1564.49c-2.61,0-4.92-1.86-5.4-4.52l-6.43-35.59c-25.26,1.72-44.51-3.15-58.75-14.83
					c-28.04-23.01-32.6-69.74-37.87-123.84c-1.07-10.98-2.18-22.34-3.52-33.94c-2.86-24.82,13.34-51.46,30.26-60.76
					c1.53-0.84,3.37-0.9,4.95-0.17c1.58,0.73,2.73,2.18,3.08,3.89c0.03,0.12,3.24,14.59,16.18,22.97
					c9.66,6.26,22.42,7.74,37.93,4.42c1.44-0.31,2.94-0.03,4.17,0.78c1.23,0.81,2.08,2.08,2.37,3.52
					c0.04,0.18,4.04,19.09,18.68,27.17c9.15,5.05,20.84,4.94,34.75-0.31c2.13-0.8,4.54-0.21,6.05,1.49l29.86,33.58
					c1.4,1.57,1.78,3.8,0.98,5.74c-0.09,0.22-9.02,22.6,0.62,36.95c5.77,8.59,17.43,12.95,34.66,12.96c2.35,0,4.44,1.49,5.2,3.72
					l29.89,87.35c0.98,2.87-0.55,6-3.42,6.98c-2.87,0.98-6-0.55-6.98-3.42l-28.64-83.71c-19.03-0.73-32.43-6.7-39.85-17.79
					c-10.39-15.52-5.39-35.96-2.82-43.9l-25.24-28.38c-15.59,5.14-29.18,4.58-40.44-1.67c-13.75-7.63-20.07-21.7-22.61-29.35
					c-16.33,2.6-30.19,0.25-41.28-7c-10.1-6.6-15.53-15.82-18.28-22.27c-10.46,9.03-21.28,27.3-19.13,45.96
					c1.35,11.7,2.46,23.1,3.54,34.13c5.04,51.67,9.39,96.29,33.91,116.41c12.8,10.51,31.04,14.42,55.75,11.96
					c2.85-0.28,5.44,1.67,5.95,4.49l7.32,40.51c0.54,2.99-1.44,5.85-4.43,6.39C1378.76,1564.46,1378.44,1564.49,1378.11,1564.49z"/>
			</g>
			<g>
				<path fill="#010101" d="M1370.79,1523.98c-2.61,0-4.92-1.86-5.4-4.52c-0.54-2.99,1.44-5.85,4.43-6.39
					c27.45-4.96,47.45-16.69,47.65-16.81c2.61-1.55,5.98-0.69,7.53,1.92c1.55,2.61,0.7,5.98-1.91,7.53
					c-0.88,0.52-21.81,12.85-51.31,18.18C1371.45,1523.95,1371.12,1523.98,1370.79,1523.98z"/>
			</g>
			<g>
				<path fill="#010101" d="M1377.34,1554.68c0,0,19.55,11.64,34.48-3.36s12.15-53.06,12.15-53.06l-53.17,20.21L1377.34,1554.68z"/>
			</g>
			<g>
				<path fill="#010101" d="M1319.65,1442.37c-2.66,0-5-1.94-5.42-4.65l-9.91-63.72c-0.47-3,1.59-5.81,4.59-6.27
					c3-0.47,5.81,1.59,6.27,4.59l9.91,63.72c0.47,3-1.59,5.81-4.59,6.27C1320.22,1442.35,1319.93,1442.37,1319.65,1442.37z"/>
			</g>
			<g>
				<path fill="#010101" d="M1372.32,1375.29c1.28,4.66-1.46,9.47-6.12,10.76c-4.66,1.28-9.47-1.46-10.76-6.12s1.46-9.47,6.12-10.76
					C1366.23,1367.9,1371.04,1370.63,1372.32,1375.29z"/>
			</g>
			<g>
				<path fill="#010101" d="M1310.45,1391.77c1.28,4.66-1.46,9.47-6.12,10.76c-4.66,1.28-9.47-1.46-10.76-6.12
					c-1.28-4.66,1.46-9.47,6.12-10.76C1304.35,1384.38,1309.17,1387.12,1310.45,1391.77z"/>
			</g>
			<g>
				<g>
					
						<ellipse transform="matrix(0.7071 -0.7071 0.7071 0.7071 -551.5576 1423.6461)" fill="#FFFFFF" cx="1442.71" cy="1377.61" rx="39.01" ry="39.01"/>
				</g>
				<g>
					<path fill="#010101" d="M1436.9,1391.27c-0.79,0-1.59-0.17-2.34-0.53c-2.74-1.3-3.92-4.57-2.62-7.32l10.5-22.21
						c1.3-2.74,4.57-3.92,7.32-2.62c2.74,1.3,3.92,4.57,2.62,7.32l-10.5,22.21C1440.94,1390.1,1438.96,1391.27,1436.9,1391.27z"/>
				</g>
			</g>
			<g>
				
					<ellipse transform="matrix(0.8879 -0.46 0.46 0.8879 -492.5378 822.6273)" fill="#F1948A" cx="1441.93" cy="1422.1" rx="18.39" ry="18.39"/>
			</g>
			<g>
				<g>
					<rect x="665.47" y="910.26" fill="#FFFFFF" width="406.15" height="309.64"/>
				</g>
				<g>
					<rect x="665.47" y="910.26" fill="#A93226" width="130.41" height="130.41"/>
				</g>
				<g>
					<path fill="#010101" d="M1071.62,1225.39H665.47c-3.04,0-5.5-2.46-5.5-5.5V910.26c0-3.04,2.46-5.5,5.5-5.5h406.15
						c3.04,0,5.5,2.46,5.5,5.5v309.64C1077.12,1222.93,1074.66,1225.39,1071.62,1225.39z M670.96,1214.4h395.16V915.75H670.96
						V1214.4z"/>
				</g>
			</g>
			<g>
				<path fill="#010101" d="M1431,1665.93c-51.9,0-92.18-22.97-117.52-43.11c-29.54-23.48-45.26-47.65-45.91-48.67
					c-1.64-2.55-0.9-5.95,1.65-7.6c2.55-1.64,5.95-0.9,7.6,1.65c0.26,0.39,15.67,23.96,43.8,46.24
					c37.52,29.72,78.69,43.2,122.34,40.07c54.62-3.92,100.15-35.85,128.74-61.94c31.26-28.54,49.66-56.55,49.85-56.83
					c1.66-2.54,5.06-3.26,7.6-1.6c2.54,1.66,3.26,5.06,1.61,7.6c-0.77,1.18-19.21,29.28-51.43,58.75
					c-29.91,27.35-77.71,60.83-135.58,64.99C1439.42,1665.78,1435.17,1665.93,1431,1665.93z"/>
			</g>
			<g>
				<g>
					<g>
						<g>
							<g>
								<g>
									<rect x="475.57" y="1628.72" fill="#FFFFFF" width="991.02" height="803.01"/>
								</g>
							</g>
							<g>
								<g>
									<rect x="475.57" y="1628.72" fill="#F1948A" width="991.02" height="64.55"/>
								</g>
							</g>
							<g>
								<g>
									<path fill="#010101" d="M1466.59,2437.72H475.57c-3.04,0-5.5-2.46-5.5-5.5v-803.01c0-3.04,2.46-5.5,5.5-5.5h991.02
										c3.04,0,5.5,2.46,5.5,5.5v803.01C1472.08,2435.26,1469.62,2437.72,1466.59,2437.72z M481.06,2426.73h980.03v-792.02H481.06
										V2426.73z"/>
								</g>
							</g>
						</g>
					</g>
					<g>
						<g>
							
								<ellipse transform="matrix(0.2298 -0.9732 0.9732 0.2298 -514.1393 2668.5623)" fill="#010101" cx="1428.87" cy="1659.1" rx="14.47" ry="14.47"/>
						</g>
						<g>
							
								<ellipse transform="matrix(0.2298 -0.9732 0.9732 0.2298 -596.5407 2564.4436)" fill="#FFFFFF" cx="1321.89" cy="1659.1" rx="14.47" ry="14.47"/>
						</g>
						<g>
							
								<ellipse transform="matrix(0.0985 -0.9951 0.9951 0.0985 -411.1783 2864.3013)" fill="#A93226" cx="1375.38" cy="1659.1" rx="14.47" ry="14.47"/>
						</g>
					</g>
				</g>
			</g>
			<g>
				<g>
					<g>
						
							<rect x="1146.95" y="1782.68" transform="matrix(0.8972 -0.4416 0.4416 0.8972 -676.5434 777.6487)" fill="#A93226" width="370.78" height="119.11"/>
					</g>
					<g>
						<path fill="#010101" d="M1192.3,1983.02c-2.03,0-3.98-1.13-4.93-3.07l-52.6-106.87c-0.64-1.31-0.74-2.82-0.27-4.2
							c0.47-1.38,1.47-2.52,2.78-3.16L1469.95,1702c1.31-0.64,2.82-0.74,4.2-0.27c1.38,0.47,2.52,1.47,3.16,2.78l52.6,106.87
							c1.34,2.72,0.22,6.02-2.5,7.36l-332.67,163.72C1193.95,1982.84,1193.12,1983.02,1192.3,1983.02z M1147.06,1873.16l47.74,97.01
							l322.81-158.87l-47.74-97.01L1147.06,1873.16z"/>
					</g>
					<g>
						<polygon fill="#FFFFFF" points="1192.3,1977.53 1073.9,1969.42 1139.7,1870.66 						"/>
					</g>
					<g>
						<path fill="#010101" d="M1192.3,1983.02c-0.12,0-0.25,0-0.38-0.01l-118.4-8.11c-1.95-0.13-3.69-1.3-4.56-3.06
							c-0.87-1.76-0.73-3.84,0.36-5.47l65.8-98.76c1.09-1.64,2.97-2.56,4.93-2.44c1.96,0.13,3.7,1.29,4.57,3.06l52.6,106.87
							c0.87,1.76,0.73,3.86-0.37,5.49C1195.84,1982.12,1194.12,1983.02,1192.3,1983.02z M1083.73,1964.58l99.43,6.81l-44.17-89.75
							L1083.73,1964.58z"/>
					</g>
					<g>
						<polygon fill="#010101" points="1073.9,1969.42 1107.72,1918.66 1134.75,1973.59 1073.9,1969.42 						"/>
					</g>
					<g>
						<path fill="#010101" d="M1178.37,1954.71c-2.03,0-3.98-1.13-4.93-3.07c-1.34-2.72-0.22-6.02,2.5-7.36l303.63-149.43
							c2.72-1.34,6.02-0.22,7.36,2.5c1.34,2.72,0.22,6.02-2.5,7.36l-303.63,149.43C1180.01,1954.52,1179.18,1954.71,1178.37,1954.71
							z"/>
					</g>
					<g>
						<path fill="#010101" d="M1153.64,1904.47c-2.03,0-3.98-1.13-4.93-3.07c-1.34-2.72-0.22-6.02,2.5-7.36l303.63-149.43
							c2.72-1.34,6.02-0.22,7.36,2.5c1.34,2.72,0.22,6.02-2.5,7.36l-303.63,149.43C1155.29,1904.29,1154.46,1904.47,1153.64,1904.47
							z"/>
					</g>
					<g>
						<path fill="#FFFFFF" d="M1495.93,1828.09l35.06-17.26c29.51-14.52,41.66-50.22,27.14-79.73
							c-14.52-29.51-50.22-41.66-79.73-27.14l-35.06,17.26L1495.93,1828.09z"/>
					</g>
					<g>
						<path fill="#010101" d="M1495.94,1833.59c-2.03,0-3.98-1.13-4.93-3.07l-52.6-106.87c-0.64-1.31-0.74-2.82-0.27-4.2
							c0.47-1.38,1.47-2.52,2.78-3.16l35.07-17.26c15.59-7.67,33.24-8.81,49.68-3.22c16.45,5.6,29.73,17.27,37.41,32.86
							c15.84,32.18,2.54,71.25-29.64,87.09l-35.06,17.26C1497.58,1833.41,1496.75,1833.59,1495.94,1833.59z M1450.7,1723.73
							l47.74,97.01l30.13-14.83c26.75-13.16,37.8-45.63,24.63-72.38c-6.38-12.96-17.42-22.65-31.09-27.31
							c-13.67-4.65-28.33-3.7-41.29,2.67L1450.7,1723.73z"/>
					</g>
					<g>
						
							<rect x="1415.76" y="1745.83" transform="matrix(-0.4416 -0.8972 0.8972 -0.4416 537.007 3877.958)" fill="#FFFFFF" width="119.11" height="52.06"/>
					</g>
					<g>
						<path fill="#010101" d="M1478.26,1842.29c-0.6,0-1.2-0.1-1.77-0.29c-1.38-0.47-2.52-1.47-3.16-2.78l-52.6-106.87
							c-1.34-2.72-0.22-6.02,2.5-7.36l46.71-22.99c1.31-0.64,2.82-0.74,4.2-0.27c1.38,0.47,2.52,1.47,3.16,2.78l52.6,106.87
							c1.34,2.72,0.22,6.02-2.5,7.36l-46.71,22.99C1479.93,1842.1,1479.09,1842.29,1478.26,1842.29z M1433.02,1732.43l47.74,97.01
							l36.85-18.13l-47.74-97.01L1433.02,1732.43z"/>
					</g>
				</g>
				<g>
					<path fill="#FFFFFF" d="M1601.2,1807.63c0,0-84.36-72.58-170.56-77.95c-86.27-5.37-145.7-9.53-200.28,33.28
						c-52.07,40.84-54.46,76.85-24.92,81.38c30.07,4.61,78.32-17.46,94.13-26.23c9.39-5.21,39.32-2.08,52.43-2.98
						c0,0-24.57,27.03-29.36,38.32c-12.57,29.64-31.41,54.78,20.13,77.33c0,0,0.97,56.6,80.23,59.82c0,0,62.12,75.89,110.09,27.72
						c0,0,27.61,45.16,77.42,33.52l21.46,13.62c51.54,32.72,119.88,17.01,151.96-34.93c34.17-55.32,12.94-128.06-45.64-156.3
						C1674.94,1843.7,1606.62,1810.66,1601.2,1807.63z"/>
				</g>
				<g>
					<path fill="#010101" d="M1690.47,2088.09c-21.58,0-42.75-6.11-61.43-17.97l-19.55-12.41c-21.2,4.31-41.77-0.46-59.65-13.85
						c-8.18-6.13-14.08-12.77-17.6-17.28c-11.26,9.44-24,13.88-37.96,13.19c-35.01-1.71-66.46-35.26-73.91-43.78
						c-41.56-2.3-61.92-19.32-71.71-33.35c-7.95-11.4-10.35-22.6-11.07-28.15c-17.54-8.14-28.12-17.42-32.3-28.32
						c-5.73-14.96,1.02-29.84,8.18-45.59c1.37-3.02,2.79-6.14,4.11-9.26c3.3-7.78,14.3-21.38,22.16-30.57
						c-1.39-0.02-2.8-0.05-4.24-0.08c-11.21-0.23-28.16-0.58-33.27,2.26c-14.87,8.25-56.87,27.52-88.16,27.53
						c-3.29,0-6.46-0.21-9.47-0.68c-12.08-1.85-20.18-8.37-22.8-18.36c-5.09-19.4,11.8-46.61,45.16-72.78
						c55.69-43.68,116.84-39.87,201.47-34.6l2.55,0.16c45.62,2.84,90.47,24.26,120.06,41.74c29.73,17.56,49.95,34.32,53.28,37.14
						c4.65,2.47,32.79,16.29,136.38,66.23c29.32,14.13,51.36,40.16,60.48,71.4c9.12,31.24,4.54,65.04-12.56,92.74
						c-16.29,26.38-41.91,44.73-72.13,51.68C1707.84,2087.11,1699.12,2088.09,1690.47,2088.09z M1610.52,2046.36
						c1.03,0,2.06,0.29,2.95,0.86l21.46,13.62c23.68,15.03,51.77,19.85,79.1,13.56c27.33-6.28,50.5-22.88,65.24-46.74
						c15.47-25.05,19.61-55.62,11.36-83.88c-8.25-28.26-28.19-51.8-54.71-64.58c-86.64-41.77-132.87-64.24-137.41-66.78
						c-0.32-0.18-0.62-0.39-0.9-0.63c-0.83-0.71-84-71.44-167.32-76.63l-2.55-0.16c-85.27-5.31-141.6-8.82-194,32.28
						c-35.14,27.56-44.21,50.27-41.31,61.34c1.48,5.64,6.13,9.1,13.83,10.28c28.44,4.36,76.16-17.57,90.63-25.6
						c7.15-3.97,20.6-4.01,38.83-3.63c6.16,0.13,11.97,0.25,15.89-0.02c2.24-0.15,4.35,1.07,5.32,3.09
						c0.98,2.02,0.63,4.43-0.88,6.09c-6.66,7.33-24.74,28.22-28.37,36.77c-1.38,3.24-2.82,6.43-4.22,9.51
						c-6.44,14.19-12.01,26.45-7.92,37.11c3.3,8.62,12.93,16.32,29.42,23.53c1.97,0.86,3.26,2.79,3.29,4.94
						c0.05,2.08,2.15,51.46,74.96,54.42c1.57,0.06,3.04,0.8,4.03,2.01c0.33,0.4,33.2,40.01,67.57,41.66
						c12.72,0.61,24.28-4.21,34.37-14.34c1.19-1.19,2.86-1.78,4.54-1.58c1.67,0.2,3.17,1.15,4.05,2.59
						c0.06,0.1,6.7,10.74,18.94,19.82c15.99,11.86,33.67,15.63,52.55,11.22C1609.69,2046.41,1610.11,2046.36,1610.52,2046.36z"/>
				</g>
				<g>
					<path fill="#010101" d="M1352,1820.64c-1.24,0-2.49-0.42-3.51-1.27c-2.33-1.94-2.65-5.4-0.71-7.74
						c0.56-0.67,13.95-16.65,33.23-30.59c2.46-1.78,5.9-1.22,7.67,1.24c1.78,2.46,1.22,5.9-1.24,7.67
						c-18.11,13.09-31.09,28.56-31.22,28.71C1355.14,1819.96,1353.57,1820.64,1352,1820.64z"/>
				</g>
				<g>
					<path fill="#010101" d="M1342.77,1936.29c-2.98,0-5.42-2.38-5.49-5.37c-1.04-44.6,52.12-93.99,83.89-123.49l0.78-0.72
						c2.22-2.07,5.7-1.94,7.77,0.29c2.07,2.22,1.94,5.7-0.29,7.77l-0.78,0.72c-30.41,28.25-81.31,75.53-80.38,115.18
						c0.07,3.03-2.33,5.55-5.37,5.62C1342.86,1936.29,1342.82,1936.29,1342.77,1936.29z"/>
				</g>
				<g>
					<path fill="#010101" d="M1423,1996.11c-2.58,0-4.88-1.82-5.39-4.45c-11.89-61.18,46.89-124.49,72.71-148.87
						c2.21-2.08,5.69-1.98,7.77,0.22c2.08,2.21,1.98,5.69-0.22,7.77c-11.94,11.27-34.41,34.3-50.8,61.97
						c-16.79,28.34-23.07,54.18-18.67,76.81c0.58,2.98-1.37,5.86-4.35,6.44C1423.71,1996.08,1423.35,1996.11,1423,1996.11z"/>
				</g>
				<g>
					<path fill="#010101" d="M1511.74,1992.89c-0.74,0-1.5-0.15-2.22-0.47c-2.77-1.23-4.03-4.47-2.8-7.25
						c0.95-2.14,23.45-52.56,44.9-68.42c2.44-1.8,5.88-1.29,7.69,1.15c1.8,2.44,1.29,5.88-1.15,7.69
						c-19.12,14.13-41.16,63.53-41.38,64.03C1515.86,1991.67,1513.85,1992.89,1511.74,1992.89z"/>
				</g>
				<g>
					<path fill="#010101" d="M1533.11,2023.83c-2.01,0-3.95-1.11-4.92-3.03c-1.36-2.71-0.27-6.02,2.45-7.38
						c5.51-2.77,12.8-8.76,15.22-16.55c1.42-4.57,0.89-9.16-1.58-13.63c-7.65-13.88-20.79-10.54-21.35-10.4
						c-2.93,0.78-5.94-0.96-6.73-3.89c-0.78-2.93,0.96-5.94,3.89-6.73c7.58-2.03,24.4-1.36,33.81,15.71
						c3.91,7.09,4.76,14.76,2.46,22.19c-3.44,11.08-12.99,19.21-20.79,23.12C1534.78,2023.64,1533.93,2023.83,1533.11,2023.83z"/>
				</g>
			</g>
			<g>
				<circle fill="#010101" cx="1359.69" cy="1134" r="111.56"/>
			</g>
			<g>
				<path fill="#010101" d="M1354.97,1234.73c-64.54,0-117.05-52.51-117.05-117.05c0-64.54,52.51-117.05,117.05-117.05
					s117.05,52.51,117.05,117.05C1472.02,1182.22,1419.51,1234.73,1354.97,1234.73z M1354.97,1011.62
					c-58.48,0-106.06,47.58-106.06,106.06c0,58.48,47.58,106.06,106.06,106.06c58.48,0,106.06-47.58,106.06-106.06
					C1461.03,1059.19,1413.45,1011.62,1354.97,1011.62z"/>
			</g>
			<g>
				<path fill="#F1948A" d="M1324.66,1245.43c-2.52,0-4.79-1.74-5.36-4.31c-0.66-2.96,1.21-5.9,4.18-6.55l111.45-24.7
					c2.96-0.66,5.9,1.21,6.55,4.18c0.66,2.96-1.21,5.9-4.18,6.55l-111.45,24.7C1325.46,1245.39,1325.06,1245.43,1324.66,1245.43z"/>
			</g>
			<g>
				<path fill="#FFFFFF" d="M680.66,1527.26c17.61,0.92,30.26,7.25,39.34,15.53c4.8-10.17,15.37-19.51,38.3-17.92
					c17.99,1.25,29.19,9.15,36.16,18.52c4.96-9.25,15.09-20.62,35.2-21.89c17.51-1.11,29.69,11.21,37.44,23.58
					c5.15-8.99,15.88-17.32,38.52-17.04c24.92,0.3,42.31,25.83,55.11,67.31c13.68,44.3,13.44,84.31-13.26,87.75
					c-25.81,3.32-44.27-15.51-56.65-41.38c-2.48,18.69-10.23,39.9-32.41,42.58c-18.9,2.28-35.03-11.82-46.89-27.53
					c-3.4,13.41-11.62,25.02-29.9,25.36c-18.16,0.34-31.96-12.07-41.91-26.72c-1.6,11.74-10.16,27.41-28.84,26.71
					c-49.31-1.83-64.06-52.89-64.06-52.89h-43.44C603.36,1629.21,624.19,1524.31,680.66,1527.26z"/>
			</g>
			<g>
				<path fill="#010101" d="M854.28,1690.03c-14.03,0-27.72-7.47-40.86-22.27c-6.1,12.75-16.9,19.57-31.69,19.85
					c-14.65,0.28-28-6.52-39.78-20.22c-5.1,11.41-15.61,20.79-31.28,20.21c-21.87-0.81-40.78-10.94-54.7-29.3
					c-7.08-9.34-11.15-18.53-13.07-23.59h-39.53c-1.65,0-3.2-0.74-4.25-2.01c-1.04-1.27-1.46-2.94-1.14-4.56
					c0.89-4.47,22.45-109.54,82.97-106.37c14.52,0.76,27.14,5.03,37.59,12.72c6.33-8.74,18.14-16.63,40.14-15.1
					c14.41,1,26.19,5.99,35.12,14.86c6.55-8.69,17.49-17.09,35.52-18.23c14.31-0.9,27.3,5.86,37.93,19.64
					c8.32-8.92,21.2-13.32,38.44-13.12c25.88,0.31,45.61,23.6,60.3,71.18c6.67,21.6,15.82,61.02,2.16,82.25
					c-4.59,7.13-11.49,11.47-19.97,12.56c-2.22,0.28-4.41,0.43-6.56,0.43c-18.8,0-35.3-10.79-48.47-31.63
					c-5.82,19.28-17.42,30.39-34.07,32.4C857.47,1689.94,855.87,1690.03,854.28,1690.03z M811.53,1651.26c1.7,0,3.34,0.79,4.39,2.19
					c13.97,18.51,28.04,27.05,41.85,25.39c15.24-1.84,24.53-14.57,27.62-37.84c0.32-2.41,2.19-4.32,4.59-4.71
					c2.4-0.38,4.77,0.86,5.82,3.06c13.42,28.04,30.58,40.93,50.99,38.3c5.31-0.68,9.27-3.17,12.13-7.61
					c8.1-12.59,6.82-39.9-3.42-73.06c-13.1-42.44-29.43-63.19-49.93-63.43c-16.82-0.2-28.14,4.6-33.68,14.28
					c-0.96,1.68-2.73,2.73-4.66,2.76c-1.93,0.04-3.74-0.94-4.77-2.58c-9.22-14.72-20.13-21.79-32.43-21.01
					c-14.09,0.89-24.42,7.28-30.7,19.01c-0.89,1.66-2.56,2.75-4.44,2.88c-1.87,0.14-3.69-0.69-4.81-2.2
					c-7.34-9.86-18.15-15.35-32.14-16.32c-16.68-1.16-27.77,3.81-32.95,14.78c-0.74,1.58-2.19,2.71-3.9,3.04
					c-1.71,0.34-3.48-0.16-4.77-1.33c-9.44-8.6-21.53-13.35-35.92-14.1c-43.29-2.25-64.52,68.71-70.09,90.97h36.53
					c2.45,0,4.6,1.62,5.28,3.97c0.03,0.11,3.64,12.21,12.85,24.25c12,15.69,27.52,23.99,46.13,24.68
					c15.85,0.59,22.05-13.53,23.2-21.96c0.31-2.26,1.97-4.09,4.19-4.61c2.22-0.52,4.52,0.38,5.8,2.26
					c11.13,16.39,23.67,24.58,37.26,24.31c13.05-0.25,21.12-7.19,24.68-21.22c0.52-2.05,2.17-3.62,4.24-4.04
					C810.8,1651.29,811.17,1651.26,811.53,1651.26z"/>
			</g>
			<g>
				<g>
					<rect x="611.98" y="1837.31" fill="#F1948A" width="461.92" height="461.92"/>
				</g>
				<g>
					<circle fill="#A93226" cx="963.97" cy="1970.33" r="81.52"/>
				</g>
				<g>
					<path fill="#010101" d="M1073.9,2098.15c-19.1-8.89-41.18-8.85-61.78-4.35c-29.11,6.36-54.79,26.04-84.38,29.34
						c-32.62,3.64-57.54-20.62-77.4-43.21c-20.83-23.7-40.75-45.88-70.37-58.48c-24.66-10.49-52.18-14.03-78.66-9.74
						c-36.71,5.95-68.87,27.85-89.34,57.99l0,229.51h461.92V2098.15z"/>
				</g>
				<g>
					<path fill="#010101" d="M1073.9,2304.73H611.98c-1.46,0-2.86-0.58-3.89-1.61c-1.03-1.03-1.61-2.43-1.61-3.89l0-461.92
						c0-1.46,0.58-2.86,1.61-3.89c1.03-1.03,2.43-1.61,3.89-1.61l461.92,0c3.04,0,5.5,2.46,5.5,5.5v461.92
						C1079.4,2302.27,1076.94,2304.73,1073.9,2304.73z M617.47,2293.74h450.93V1842.8l-450.93,0L617.47,2293.74z"/>
				</g>
			</g>
			<g>
				<path fill="#010101" d="M890.6,1648.67c-2.74,0-5.12-2.05-5.45-4.84c-5.19-43.5-23.08-96.45-23.26-96.98
					c-0.98-2.87,0.56-6,3.44-6.97c2.87-0.98,6,0.56,6.97,3.44c0.75,2.21,18.44,54.59,23.77,99.22c0.36,3.01-1.79,5.75-4.81,6.11
					C891.04,1648.66,890.82,1648.67,890.6,1648.67z"/>
			</g>
			<g>
				<path fill="#010101" d="M811.52,1662.25c-2.68,0-5.03-1.97-5.43-4.7c-4.46-30.63-16.94-112.5-17.06-113.32
					c-0.46-3,1.6-5.8,4.6-6.26c3-0.46,5.8,1.6,6.26,4.6c0.13,0.82,12.61,82.73,17.07,113.4c0.44,3-1.64,5.79-4.65,6.23
					C812.05,1662.23,811.78,1662.25,811.52,1662.25z"/>
			</g>
			<g>
				<path fill="#010101" d="M739.71,1660.89c-2.82,0-5.22-2.16-5.47-5.02c-4.44-51.54-19.41-111.13-19.56-111.73
					c-0.74-2.94,1.04-5.93,3.98-6.68c2.94-0.74,5.93,1.04,6.68,3.98c0.15,0.6,15.34,61.04,19.86,113.48c0.26,3.02-1.98,5.69-5,5.95
					C740.02,1660.88,739.86,1660.89,739.71,1660.89z"/>
			</g>
			<g>
				<path fill="#010101" d="M646.8,1634.71c-2.69,0-5.04-1.98-5.43-4.72l-4.17-29.14c-0.43-3,1.66-5.79,4.66-6.22
					c3.01-0.43,5.79,1.66,6.22,4.66l4.17,29.14c0.43,3-1.66,5.79-4.66,6.22C647.32,1634.69,647.06,1634.71,646.8,1634.71z"/>
			</g>
			<g>
				<path fill="#010101" d="M1729.53,2201.3c-1.35,0-2.69-0.49-3.75-1.48c-56.47-52.86-119.15-143.93-119.78-144.85
					c-1.72-2.5-1.08-5.92,1.42-7.64c2.5-1.72,5.92-1.08,7.64,1.42c0.62,0.9,62.64,91,118.23,143.04c2.22,2.07,2.33,5.55,0.26,7.77
					C1732.46,2200.71,1730.99,2201.3,1729.53,2201.3z"/>
			</g>
			<g>
				<path fill="#010101" d="M2051.12,1992.89c-0.5,0-1-0.07-1.5-0.21c-14.05-3.99-28.38-17.05-48.2-35.14
					c-22.7-20.71-53.79-49.07-100.49-78.4c-84.06-52.79-214.61-27.23-215.91-26.97c-2.98,0.6-5.87-1.32-6.47-4.3
					c-0.6-2.97,1.32-5.87,4.3-6.47c1.38-0.28,34.31-6.83,78.48-6.72c40.97,0.1,99.47,6.27,145.45,35.15
					c47.54,29.85,79.05,58.6,102.05,79.59c18.71,17.07,32.23,29.4,43.79,32.68c2.92,0.83,4.62,3.87,3.79,6.79
					C2055.72,1991.31,2053.52,1992.89,2051.12,1992.89z"/>
			</g>
			<g>
				<path fill="#010101" d="M1661.82,1842.81c-2.09,0-4.09-1.2-5.01-3.22l-31.16-68.52c-1.26-2.76-0.03-6.02,2.73-7.28
					c2.76-1.26,6.02-0.03,7.28,2.73l31.16,68.52c1.26,2.76,0.03,6.02-2.73,7.28C1663.35,1842.65,1662.58,1842.81,1661.82,1842.81z"
					/>
			</g>
			<g>
				<path fill="#010101" d="M1332.21,1458.36c-2.36,0-4.54-1.53-5.26-3.9c-0.88-2.9,0.76-5.97,3.67-6.85
					c7.81-2.37,7.19-10.99,7.16-11.36c-0.25-3.03,2-5.68,5.03-5.93c3.03-0.25,5.68,2,5.93,5.03c0.51,6.16-1.96,18.85-14.93,22.78
					C1333.27,1458.28,1332.73,1458.36,1332.21,1458.36z"/>
			</g>
		</g>
		<g>
			<g>
				<path fill="#010101" d="M2791.34,2248.2h668.89l62.92,140.12h-743.12C2780.03,2268.15,2791.34,2248.2,2791.34,2248.2z"/>
			</g>
			<g>
				<path fill="#010101" d="M3523.15,2393.81h-743.12c-3.03,0-5.5-2.46-5.5-5.5c0-118.2,10.79-140.66,12.03-142.83
					c0.98-1.72,2.8-2.79,4.78-2.79h668.89c2.16,0,4.13,1.27,5.01,3.24l62.92,140.12c0.76,1.7,0.61,3.67-0.4,5.24
					C3526.75,2392.87,3525.02,2393.81,3523.15,2393.81z M2785.53,2382.82h729.13l-57.99-129.13h-661.55
					C2792.47,2262.33,2785.8,2292.91,2785.53,2382.82z"/>
			</g>
			<g>
				<path fill="#FFFFFF" d="M4000.65,1833.87c-40.08-142.88-142.5-320.46-142.5-320.46l-226.98,99.69l24.2,214.61
					c2.65,12.61-4.62,25.2-16.87,29.21c-12.58,4.12-26.2-2.15-31.23-14.4c-15.25-37.16-45.59-111.97-55.57-143.01
					c-30.82-95.85-95.39-143.78-184.83-149.9l-151.79-10.38l-136.03-15.04c-160.72-17.77-302,113.6-299.03,275.27
					c1.19,64.48-1.77,146.35,11.31,229.52v219.21h90.26l-0.02-0.05c168.04,216.61,464.38,138.88,596.55,15.84
					c161.35,80.36,321.34,80.46,433.25-0.63C4023.41,2182.18,4047.59,2001.18,4000.65,1833.87z"/>
			</g>
			<g>
				<path fill="#010101" d="M3163.55,2389.96c-11.09,0-22.07-0.44-32.93-1.31c-48.73-3.94-94.28-16.65-135.36-37.78
					c-44.42-22.84-83.54-55.52-116.31-97.18h-87.6c-3.03,0-5.5-2.46-5.5-5.5v-218.79c-10.35-66.08-10.66-130.54-10.93-187.44
					c-0.07-14.91-0.14-28.99-0.38-42.41c-1.46-79.41,31.77-156.04,91.17-210.23c28.57-26.07,61.36-45.53,97.45-57.84
					c37.67-12.85,76.87-17.15,116.51-12.76l135.92,15.03l151.67,10.37c46.39,3.17,85.91,17.46,117.44,42.47
					c32.5,25.78,56.81,63.2,72.25,111.22c9.77,30.39,38.92,102.39,55.42,142.61c3.91,9.52,14.64,14.47,24.43,11.26
					c9.6-3.14,15.28-12.97,13.2-22.86c-0.04-0.17-0.06-0.34-0.08-0.51l-24.2-214.61c-0.27-2.39,1.05-4.68,3.25-5.65l226.98-99.69
					c2.57-1.13,5.57-0.14,6.97,2.29c1.03,1.78,103.23,179.82,143.03,321.72c23.84,84.98,29.2,173.6,15.09,249.53
					c-15.28,82.23-52.08,146.51-106.42,185.89c-28.15,20.4-59.73,36.02-93.84,46.42c-33.6,10.25-69.76,15.46-107.47,15.49
					c-0.12,0-0.24,0-0.36,0c-74.28,0-155.06-20.43-233.86-59.13c-40.23,36.63-94.11,68.34-152.18,89.52
					C3272.89,2379.81,3217.05,2389.96,3163.55,2389.96z M2881.61,2242.67c1.64,0,3.25,0.73,4.31,2.11
					c61.21,78.91,146.13,124.87,245.58,132.91c137.56,11.13,271.33-51.11,342.88-117.72c1.68-1.56,4.15-1.92,6.19-0.9
					c80.42,40.05,159.57,60.08,232.46,60.08c72.99,0,139.69-20.08,195.12-60.25c102.41-74.21,137.45-244.42,87.2-423.55
					c-36.01-128.39-123.8-287-139.54-314.92l-218.74,96.07l23.72,210.34c3.08,15.3-5.73,30.44-20.59,35.3
					c-15.24,4.99-31.94-2.72-38.02-17.54c-16.57-40.37-45.83-112.68-55.72-143.42c-29.18-90.77-89.74-139.93-179.98-146.09
					l-151.79-10.38c-0.08-0.01-0.15-0.01-0.23-0.02l-136.03-15.04c-74.27-8.21-149.11,16.5-205.35,67.8
					c-57.07,52.06-88.99,125.65-87.59,201.9c0.25,13.49,0.31,27.61,0.39,42.56c0.27,56.62,0.57,120.8,10.86,186.21
					c0.04,0.28,0.07,0.57,0.07,0.85v213.72h84.18C2881.22,2242.68,2881.42,2242.67,2881.61,2242.67z"/>
			</g>
			<g>
				<g>
					<path fill="#FFFFFF" d="M3802.11,1421.58l90.08,147.61c38.97,63.86,16.6,147.33-49.09,183.13
						c-69.66,37.98-156.82,5.74-185.02-68.42l-40.18-105.7c0,0-86.98-88.03-109.19-92.27c-45.99-8.77-84.73-17.38-74.05-50.53
						c14.02-43.52,117.58-15.6,117.58-15.6s-5.55-30.22,4.89-68.6c0,0-24.99-20.15-53.21-13.79c-55.97,12.63-82.07,6.35-84.04-17.83
						c-3.67-45.08,70.42-64.27,166.02-60.87C3664.3,1261.5,3781.08,1277.33,3802.11,1421.58z"/>
				</g>
				<g>
					<path fill="#010101" d="M3780.45,1773.79c-15.97,0-31.99-2.81-47.31-8.47c-36.96-13.67-66.19-42.63-80.19-79.46l-39.77-104.62
						c-33.3-33.62-90.66-87.08-105.5-89.91c-38.25-7.29-66.12-13.8-76.44-31.2c-4.44-7.48-5.04-16.37-1.81-26.42
						c6.68-20.73,30.09-30.12,69.58-27.92c18.98,1.06,36.93,4.57,46.81,6.8c-0.98-11.28-1.47-33.11,5.04-59.12
						c-6.93-4.61-25.67-15.22-45.72-10.7c-40.48,9.13-65.73,8.69-79.45-1.4c-6.73-4.95-10.53-12.13-11.28-21.35
						c-1.01-12.36,3.04-23.4,12.02-32.81c12.18-12.75,33.18-22.14,62.41-27.93c26.73-5.29,60.36-7.39,97.26-6.08
						c38.85,1.38,88.96,5.93,132.02,29.03c49.55,26.59,79.58,72.83,89.26,137.42l89.5,146.65c19.64,32.18,25.08,69.96,15.32,106.37
						c-9.76,36.41-33.37,66.41-66.47,84.45C3825.48,1768.19,3803.01,1773.79,3780.45,1773.79z M3488.67,1416.49
						c-22.95,0-43.71,4.86-48.78,20.6c-2.26,7.02-2,12.72,0.8,17.44c8.59,14.48,42.11,20.87,69.05,26.01
						c3.81,0.73,15.42,2.94,65.62,49.07c24.34,22.37,46.24,44.51,46.46,44.73c0.54,0.54,0.96,1.19,1.23,1.91l40.18,105.7
						c12.87,33.87,39.75,60.49,73.73,73.06c33.98,12.57,71.71,9.83,103.52-7.51c30.43-16.59,52.14-44.17,61.11-77.65
						c8.97-33.48,3.97-68.21-14.08-97.8l-90.08-147.61c-0.39-0.63-0.64-1.34-0.75-2.07c-19.57-134.24-123.02-155.04-210.96-158.17
						c-75.04-2.67-130.2,8.49-151.33,30.61c-6.82,7.14-9.77,15.09-9.02,24.32c0.49,5.99,2.72,10.36,6.83,13.39
						c10.67,7.84,34.39,7.68,70.52-0.47c30.46-6.87,56.76,13.98,57.86,14.87c1.7,1.37,2.43,3.62,1.85,5.72
						c-9.96,36.59-4.84,65.88-4.79,66.17c0.34,1.85-0.3,3.75-1.69,5.03c-1.39,1.28-3.33,1.75-5.15,1.26
						C3537.06,1421.41,3511.76,1416.49,3488.67,1416.49z"/>
				</g>
				<g>
					<path fill="#010101" d="M3698.88,1483.01c-7.89,0-14.71-2.44-20.32-7.3c-10.55-9.13-16-26.14-16.21-50.56
						c-0.12-13.75,2.64-61.04,43.16-92.09c2.41-1.85,5.86-1.39,7.71,1.02c1.85,2.41,1.39,5.86-1.02,7.7
						c-36.48,27.95-38.97,70.81-38.86,83.27c0.18,20.83,4.47,35.47,12.42,42.35c4.49,3.89,10.17,5.3,17.35,4.32
						c24.2-3.3,27.02-45.68,27.04-46.1c0.13-2.11,1.45-3.96,3.4-4.76c1.95-0.8,4.19-0.41,5.76,1l14.24,12.85
						c2.25,2.03,2.43,5.51,0.4,7.76c-2.03,2.25-5.51,2.43-7.76,0.4l-6.47-5.84c-2.84,15.45-11.19,42.32-35.13,45.58
						C3702.62,1482.88,3700.72,1483.01,3698.88,1483.01z"/>
				</g>
				<g>
					<path fill="#010101" d="M3647.27,1482.24c-4.78,0-9.99-0.92-15.52-3.25c-21.85-9.21-31.61-32.66-29.84-71.67
						c2.23-49.04,37.34-101.68,38.83-103.9c1.69-2.52,5.11-3.18,7.63-1.49c2.52,1.69,3.18,5.11,1.49,7.63
						c-0.35,0.52-34.88,52.33-36.97,98.26c-1.54,33.87,6.03,53.83,23.13,61.04c3.97,1.67,7.73,2.34,11.19,2.34
						c12.71,0,21.42-8.91,21.87-9.39c2.09-2.19,5.56-2.28,7.76-0.2c2.2,2.08,2.31,5.54,0.23,7.74
						C3676.46,1470.01,3664.71,1482.24,3647.27,1482.24z"/>
				</g>
				<g>
					<path fill="#010101" d="M3557.14,1356.7c-0.37,0-0.74-0.04-1.12-0.12c-2.97-0.62-4.88-3.52-4.27-6.5
						c6.85-33.07,37.14-59.44,38.42-60.54c2.3-1.98,5.77-1.72,7.75,0.58c1.98,2.3,1.72,5.77-0.58,7.75
						c-0.29,0.25-28.75,25.08-34.83,54.44C3561.98,1354.91,3559.69,1356.7,3557.14,1356.7z"/>
				</g>
				<g>
					<path fill="#010101" d="M3585.29,1450.73c-5.64,0-11.6-0.9-17.24-3.43c-10.11-4.52-17.2-13.23-21.07-25.89
						c-0.89-2.9,0.75-5.97,3.65-6.86c2.9-0.89,5.98,0.75,6.86,3.65c2.9,9.49,7.96,15.9,15.05,19.07
						c14.89,6.66,34.25-2.12,34.44-2.21c2.75-1.27,6.02-0.07,7.29,2.68c1.27,2.76,0.07,6.02-2.68,7.29
						C3610.9,1445.36,3599.05,1450.73,3585.29,1450.73z"/>
				</g>
				<g>
					<path fill="#010101" d="M3625.36,1554.12c-3.03,0-5.49-2.46-5.5-5.49c-0.01-35.92,17.31-55.99,31.84-66.49
						c15.64-11.3,31.21-14.1,31.86-14.21c2.99-0.52,5.83,1.49,6.35,4.48c0.52,2.99-1.48,5.83-4.47,6.35
						c-0.29,0.05-14.13,2.64-27.65,12.54c-17.89,13.09-26.96,32.38-26.95,57.33C3630.85,1551.66,3628.39,1554.12,3625.36,1554.12
						C3625.36,1554.12,3625.36,1554.12,3625.36,1554.12z"/>
				</g>
			</g>
			<g>
				<path fill="#010101" d="M3249.34,2050.09c-17.6,0-33.33-1.64-47.44-4.89c-48.63-11.19-79.63-41.85-97.55-96.49
					c-15.81-48.21-32.31-213.89-33-220.92c-0.3-3.02,1.91-5.71,4.93-6.01c3.01-0.3,5.71,1.91,6.01,4.93
					c0.17,1.71,17.07,171.5,32.51,218.57c16.83,51.31,44.46,78.82,89.58,89.2c48.28,11.11,117.31,2.35,217.24-27.59
					c2.91-0.87,5.97,0.78,6.84,3.69c0.87,2.91-0.78,5.97-3.69,6.84C3351.54,2039.37,3294.36,2050.09,3249.34,2050.09z"/>
			</g>
			<g>
				<path fill="#010101" d="M3460.64,1999.4c-2.95,0-5.4-2.35-5.49-5.32l-7.1-225.12c-0.1-3.03,2.29-5.57,5.32-5.67
					c3.02-0.1,5.57,2.29,5.67,5.32l7.1,225.12c0.1,3.03-2.29,5.57-5.32,5.67C3460.76,1999.4,3460.7,1999.4,3460.64,1999.4z"/>
			</g>
			<g>
				
					<ellipse transform="matrix(0.7071 -0.7071 0.7071 0.7071 15.4268 2707.5042)" fill="#010101" cx="3275.96" cy="1335.13" rx="138.21" ry="138.21"/>
			</g>
			<g>
				<path fill="#FFFFFF" d="M3183.43,1432.79c39.06-8.36,77.15-62.12,78.14-64.91c5.84-16.34,9.8-52.26,11.6-71.61
					c0.7-7.57,6.77-13.5,14.35-14.04c26.1-1.87,83.32-4.54,102.63,6.17c14.24,7.9,18.66,28.76,18,42.27
					c-0.34,6.94,3.69,40.62-4.38,85.05c-11.62,63.94-12.53,104.51-80.88,97.69l-13.98,58.25l-159.35-30.47L3183.43,1432.79z"/>
			</g>
			<g>
				<path fill="#010101" d="M3313.79,1556.84c-0.43,0-0.86-0.05-1.29-0.15c-2.95-0.71-4.77-3.68-4.06-6.63l9.11-37.94
					c0.64-2.67,3.16-4.46,5.89-4.19c27.42,2.74,44.1-2.21,54.09-16.03c9.77-13.52,13.48-34.94,18.18-62.07
					c0.84-4.87,1.72-9.91,2.66-15.1c6.33-34.83,5.09-62.95,4.49-76.46c-0.16-3.74-0.27-6.21-0.19-7.87
					c0.55-11.26-3.04-30.47-15.18-37.2c-12.63-7.01-49.86-9.06-99.57-5.49c-4.92,0.35-8.82,4.17-9.27,9.07
					c-1.86,20.02-5.88,56.11-11.89,72.95c-0.99,2.77-11.86,17.88-26.05,32.36c-12.94,13.21-32.37,29.72-52.95,35.3l-32.93,105.43
					c-0.91,2.9-3.99,4.51-6.88,3.61c-2.9-0.9-4.51-3.99-3.61-6.88l33.86-108.4c0.59-1.89,2.16-3.32,4.1-3.74
					c35.23-7.54,71.21-56.38,74.22-61.67c4.07-11.61,8.14-37.07,11.2-69.98c0.95-10.28,9.13-18.28,19.43-19.02
					c30.87-2.22,85.65-4.27,105.69,6.84c17.78,9.86,21.46,34.4,20.83,47.35c-0.06,1.15,0.05,3.66,0.2,6.85
					c0.61,13.91,1.89,42.86-4.66,78.91c-0.94,5.16-1.81,10.17-2.65,15.01c-4.94,28.52-8.85,51.05-20.1,66.63
					c-11.74,16.25-30.66,22.96-59.3,20.94l-8,33.35C3318.53,1555.15,3316.28,1556.84,3313.79,1556.84z M3256.42,1365.96
					c-0.01,0.03-0.02,0.05-0.03,0.07C3256.4,1366.01,3256.41,1365.98,3256.42,1365.96z"/>
			</g>
			<g>
				<path fill="#010101" d="M3322.9,1518.9c-0.25,0-0.51-0.02-0.76-0.05c-36.66-5.08-57.32-17.15-58.18-17.66
					c-2.61-1.55-3.47-4.92-1.92-7.53c1.55-2.61,4.92-3.47,7.53-1.92c0.19,0.11,19.8,11.47,54.08,16.22c3.01,0.42,5.11,3.19,4.69,6.2
					C3327.96,1516.91,3325.6,1518.9,3322.9,1518.9z"/>
			</g>
			<g>
				<path fill="#010101" d="M3316.7,1539.23c0,0-8.76,14.78-27.19,6.65c-18.4-8.11-22.74-49.42-22.74-49.42l56.13,16.94
					L3316.7,1539.23z"/>
			</g>
			<g>
				<g>
					
						<ellipse transform="matrix(0.8439 -0.5365 0.5365 0.8439 -233.8224 1955.158)" fill="#FFFFFF" cx="3242.61" cy="1379.35" rx="36.61" ry="36.61"/>
				</g>
				<g>
					<path fill="#010101" d="M3249.73,1390.98c-1.6,0-3.18-0.69-4.27-2.03l-14.55-17.89c-1.91-2.35-1.56-5.82,0.8-7.73
						c2.36-1.91,5.82-1.56,7.73,0.8l14.55,17.89c1.91,2.35,1.56,5.82-0.8,7.73C3252.18,1390.58,3250.95,1390.98,3249.73,1390.98z"/>
				</g>
			</g>
			<g>
				<path fill="#010101" d="M3328.14,1369.73c-0.46,4.81-4.74,8.33-9.55,7.87c-4.81-0.46-8.33-4.74-7.87-9.55s4.74-8.33,9.55-7.87
					C3325.09,1360.64,3328.61,1364.92,3328.14,1369.73z"/>
			</g>
			<g>
				<path fill="#010101" d="M3397.41,1376.41c-0.46,4.81-4.74,8.33-9.55,7.87c-4.81-0.46-8.33-4.74-7.87-9.55
					c0.46-4.81,4.74-8.33,9.55-7.87C3394.35,1367.33,3397.88,1371.6,3397.41,1376.41z"/>
			</g>
			<g>
				<g>
					<g>
						<path fill="#F1948A" d="M3395.51,2481.77c34.66,21.48,80.16,10.8,101.64-23.86l529.47-854.48
							c21.48-34.66,10.8-80.16-23.86-101.64c-34.66-21.48-80.16-10.8-101.64,23.86l-529.47,854.48
							C3350.17,2414.78,3360.86,2460.29,3395.51,2481.77z"/>
					</g>
					<g>
						
							<ellipse transform="matrix(0.7071 -0.7071 0.7071 0.7071 154.7772 3273.1367)" fill="#F1948A" cx="4028.41" cy="1449.74" rx="375.81" ry="375.81"/>
					</g>
					<g>
						<path fill="#010101" d="M4028.2,1831.13c-19.58,0-39.18-1.52-58.71-4.57c-50.44-7.86-98.19-25.6-141.95-52.72
							c-43.75-27.12-80.89-61.99-110.37-103.66c-28.48-40.24-48.66-85.09-59.97-133.3c-11.32-48.21-13.21-97.35-5.61-146.07
							c7.86-50.44,25.6-98.19,52.72-141.95l4.67,2.9l-4.67-2.9c27.12-43.75,61.99-80.89,103.66-110.37
							c40.24-28.48,85.09-48.66,133.3-59.97c48.21-11.32,97.36-13.21,146.07-5.61c50.44,7.86,98.19,25.6,141.95,52.72
							c43.75,27.12,80.89,61.99,110.37,103.66c28.48,40.24,48.66,85.09,59.97,133.3s13.21,97.35,5.61,146.07
							c-7.86,50.44-25.6,98.19-52.71,141.95c-27.12,43.75-61.99,80.89-103.66,110.37c-40.24,28.48-85.09,48.66-133.3,59.97
							C4086.68,1827.73,4057.46,1831.13,4028.2,1831.13z M4029.02,1079.51c-124.05,0-245.36,62.18-315.37,175.15
							c-52.11,84.08-68.35,183.41-45.75,279.71c22.61,96.3,81.36,178.03,165.44,230.13c59.33,36.77,126.28,55.68,194.38,55.69
							c28.4,0,56.99-3.29,85.33-9.94c96.3-22.61,178.03-81.36,230.13-165.44c107.57-173.56,53.87-402.28-119.69-509.84
							C4162.9,1097.42,4095.55,1079.51,4029.02,1079.51z"/>
					</g>
					<g>
						<g>
							<path fill="#FFFFFF" d="M3730,1519.79c-9.19-39.13-10.72-79.02-4.55-118.55c6.38-40.94,20.78-79.7,42.79-115.21
								c22.01-35.51,50.31-65.65,84.13-89.58c32.66-23.11,69.07-39.49,108.2-48.68c39.13-9.19,79.02-10.72,118.55-4.55
								c40.94,6.38,79.7,20.78,115.21,42.79c35.51,22.01,65.65,50.31,89.58,84.13c23.11,32.66,39.49,69.07,48.68,108.2
								s10.72,79.02,4.55,118.55c-6.38,40.94-20.78,79.7-42.79,115.21c-22.01,35.51-50.31,65.65-84.13,89.58
								c-32.66,23.11-69.07,39.49-108.2,48.68c-39.13,9.19-79.02,10.72-118.55,4.55c-40.94-6.38-79.7-20.78-115.21-42.79
								c-35.51-22.01-65.65-50.31-89.58-84.13C3755.56,1595.32,3739.18,1558.92,3730,1519.79z"/>
						</g>
					</g>
				</g>
			</g>
			<g>
				<g>
					<path fill="#010101" d="M4031.29,1259.17c-104.87,0-189.89,85.02-189.89,189.89c0,104.87,85.01,189.89,189.89,189.89
						c104.87,0,189.89-85.01,189.89-189.89h-189.89V1259.17z"/>
				</g>
				<g>
					<path fill="#A93226" d="M4060.13,1230.34v189.89h189.89C4250.02,1315.35,4165,1230.34,4060.13,1230.34z"/>
				</g>
			</g>
			<g>
				<g>
					<g>
						<path fill="#F1948A" d="M3417.53,1435.92c-1.65,0-3.31-0.08-4.98-0.24c-28.24-2.73-49-27.92-46.28-56.16
							c1.32-13.68,7.89-26.03,18.5-34.77c10.61-8.74,23.98-12.83,37.66-11.51c28.24,2.73,49,27.92,46.28,56.16
							C3466.15,1415.97,3443.69,1435.92,3417.53,1435.92z M3417.42,1343.99c-9.36,0-18.34,3.21-25.66,9.24
							c-8.34,6.87-13.51,16.58-14.55,27.34c-2.14,22.21,14.18,42.02,36.39,44.17c22.2,2.14,42.02-14.18,44.17-36.39
							c2.14-22.21-14.18-42.02-36.39-44.17C3420.05,1344.05,3418.73,1343.99,3417.42,1343.99z"/>
					</g>
					<g>
						<path fill="#F1948A" d="M3313.21,1425.85c-1.65,0-3.31-0.08-4.98-0.24c-28.24-2.73-49-27.92-46.28-56.16
							c1.32-13.68,7.89-26.03,18.5-34.77c10.61-8.74,23.98-12.83,37.66-11.51c13.68,1.32,26.03,7.89,34.77,18.5
							c8.74,10.61,12.83,23.98,11.51,37.67C3361.83,1405.9,3339.37,1425.85,3313.21,1425.85z M3313.1,1333.92
							c-9.36,0-18.34,3.21-25.66,9.24c-8.34,6.87-13.51,16.58-14.55,27.34c-2.14,22.21,14.18,42.02,36.39,44.17
							c22.22,2.14,42.02-14.18,44.17-36.39c1.04-10.76-2.18-21.28-9.05-29.62c-6.87-8.34-16.58-13.51-27.34-14.55
							C3315.73,1333.98,3314.41,1333.92,3313.1,1333.92z"/>
					</g>
				</g>
				<g>
					<path fill="#F1948A" d="M3421.91,1344.2c-0.18,0-0.36-0.01-0.53-0.03l-104.32-10.07c-3.02-0.29-5.23-2.98-4.94-6
						c0.29-3.02,2.99-5.23,6-4.94l104.32,10.07c3.02,0.29,5.23,2.98,4.94,6C3427.1,1342.08,3424.71,1344.2,3421.91,1344.2z"/>
				</g>
			</g>
			<g>
				<path fill="#010101" d="M3366.43,1427.81c-3.07-0.02-5.51-2.49-5.5-5.53l0.33-57.65c0.02-3.02,2.47-5.46,5.49-5.46
					c3.07,0.02,5.51,2.49,5.5,5.53l-0.33,57.65C3371.9,1425.37,3369.45,1427.81,3366.43,1427.81z"/>
			</g>
			<g>
				<path fill="#010101" d="M3367.68,1450.2c-2.24,0-4.34-1.38-5.16-3.6c-1.05-2.85,0.41-6.01,3.26-7.06l13.81-5.08
					c2.85-1.05,6.01,0.41,7.06,3.26c1.05,2.85-0.41,6.01-3.26,7.06l-13.81,5.08C3368.96,1450.09,3368.31,1450.2,3367.68,1450.2z"/>
			</g>
			<g>
				<path fill="#010101" d="M3257.84,1647.89c-0.5,0-1,0-1.51-0.01c-39.59-0.42-81.35-21.27-120.77-60.31
					c-29.47-29.19-47.1-57.82-47.83-59.02c-1.58-2.59-0.77-5.97,1.82-7.55c2.59-1.58,5.97-0.77,7.56,1.82
					c0.17,0.29,17.78,28.86,46.36,57.12c26,25.72,66.72,56.47,112.98,56.96c36.75,0.38,67.13-14.16,90.27-43.23
					c17.51-22,24.12-44.53,24.19-44.75c0.84-2.91,3.88-4.6,6.8-3.77c2.92,0.84,4.6,3.87,3.77,6.79c-0.28,0.99-7.15,24.56-25.9,48.25
					C3338.3,1622.01,3307.37,1647.89,3257.84,1647.89z"/>
			</g>
			<g>
				<path fill="#FFFFFF" d="M3868.11,1897.01c8.23-32.01-15.82-56.51-142.69-80.88l12.46-27.1c0,0-101.29,3.56-142.16,57.3
					c-14.74,19.39-80.81,121.32-80.81,121.32l-87.16,42.16c-55.11,26.66-77.07,93.76-48.37,147.84
					c29.91,56.36,101.9,74.64,155.07,39.38l121.04-80.27c0,0,35.89,5.92,58.4,7.65c27.38,2.11,63.51,4.89,76.15-21.79
					c12.7-26.79-6.03-36.82-6.03-36.82s30.17,3.96,41.56-25.39c9.71-25.03-5.12-40.6-5.12-40.6s28.77,4.28,37.78-22.66
					c11.26-33.69-21-53.51-21-53.51S3861.39,1923.17,3868.11,1897.01z"/>
			</g>
			<g>
				<path fill="#010101" d="M3474.7,2220.51c-9.32,0-18.68-1.15-27.86-3.48c-30.98-7.87-57.33-28.57-72.31-56.8
					c-14.59-27.49-17.29-58.91-7.61-88.49c9.68-29.57,30.43-53.32,58.44-66.87l85.78-41.49c8.05-12.4,66.24-101.99,80.21-120.37
					c17.72-23.31,47.82-40.4,89.44-50.81c30.64-7.66,55.84-8.62,56.89-8.66c1.92-0.07,3.71,0.86,4.77,2.45
					c1.06,1.59,1.22,3.61,0.42,5.34l-9.54,20.75c40.09,7.94,70.32,16.06,92.27,24.78c22.29,8.86,36.61,18.66,43.77,29.97
					c5.83,9.2,7.15,19.52,4.06,31.56c-4.12,16.01-14.53,24.29-23.89,28.07c10.98,10.8,21.63,29.38,13.92,52.44
					c-6.17,18.47-21.08,25-33.04,26.42c3.69,7.99,6.62,20.79,0.3,37.09c-7.31,18.84-22.26,26.28-34.55,28.43
					c4.1,7.08,6.42,18.2-1.14,34.15c-14.26,30.1-53.15,27.1-81.54,24.91c-19.6-1.51-48.61-6.05-56.74-7.36l-119.25,79.08
					C3518.75,2214.04,3496.83,2220.5,3474.7,2220.51z M3729,1795.19c-25.35,2.36-97.1,12.64-128.9,54.47
					c-14.45,19-79.91,119.96-80.57,120.98c-0.55,0.84-1.31,1.52-2.22,1.96l-87.16,42.16c-25.3,12.24-44.04,33.69-52.78,60.4
					c-8.74,26.71-6.3,55.09,6.88,79.92c13.53,25.5,37.34,44.19,65.31,51.3c27.98,7.1,57.82,2.03,81.87-13.92l121.04-80.27
					c1.16-0.77,2.56-1.07,3.93-0.84c0.36,0.06,35.92,5.9,57.93,7.59c26.62,2.05,59.74,4.6,70.77-18.66
					c10-21.11-2.28-28.84-3.71-29.66c-2.34-1.25-3.42-3.99-2.61-6.51c0.81-2.53,3.35-4.1,5.97-3.75
					c1.04,0.13,26.08,2.91,35.72-21.93c8.25-21.26-3.5-34.31-4-34.85c-1.58-1.71-1.93-4.25-0.84-6.31c1.09-2.06,3.35-3.23,5.65-2.88
					c0.97,0.14,24.35,3.17,31.75-18.97c9.76-29.21-18.38-46.9-18.66-47.08c-2.08-1.28-3.07-3.77-2.43-6.13
					c0.64-2.35,2.76-4,5.2-4.05c0.79-0.03,20.09-0.88,25.65-22.5c2.33-9.06,1.47-16.35-2.7-22.94
					c-12.36-19.5-55.48-35.77-135.7-51.18c-1.66-0.32-3.08-1.38-3.85-2.88c-0.77-1.5-0.81-3.28-0.11-4.81L3729,1795.19z"/>
			</g>
			<g>
				<path fill="#010101" d="M3837.25,1929.14c-0.68,0-1.37-0.13-2.04-0.39c-0.69-0.28-69.77-27.71-124.61-38.44
					c-2.98-0.58-4.92-3.47-4.34-6.45c0.58-2.98,3.47-4.92,6.45-4.34c55.86,10.93,125.88,38.74,126.58,39.02
					c2.82,1.12,4.19,4.32,3.07,7.14C3841.5,1927.83,3839.43,1929.14,3837.25,1929.14z"/>
			</g>
			<g>
				<path fill="#010101" d="M3820.47,2005.31c-0.61,0-1.22-0.1-1.83-0.31c-0.73-0.26-73.6-25.87-128.18-37.98
					c-2.96-0.66-4.83-3.59-4.17-6.56c0.66-2.96,3.6-4.83,6.56-4.17c55.23,12.26,128.72,38.09,129.45,38.35
					c2.86,1.01,4.36,4.15,3.36,7.01C3824.86,2003.89,3822.74,2005.31,3820.47,2005.31z"/>
			</g>
			<g>
				<path fill="#010101" d="M3784.03,2071.3c-0.61,0-1.22-0.1-1.82-0.31c-0.51-0.18-51.69-18.09-109.39-30.05
					c-2.97-0.62-4.88-3.52-4.27-6.5c0.62-2.97,3.52-4.88,6.5-4.27c58.45,12.11,110.29,30.26,110.81,30.44
					c2.86,1.01,4.37,4.15,3.36,7.01C3788.42,2069.89,3786.3,2071.3,3784.03,2071.3z"/>
			</g>
			<g>
				<path fill="#010101" d="M2881.61,2253.69c-1.71,0-3.4-0.8-4.48-2.3c-0.78-1.1-19.4-27.31-40.1-67.86
					c-19.13-37.48-43.53-94.6-51.14-153.85c-0.39-3.01,1.74-5.76,4.75-6.15c3.01-0.39,5.76,1.74,6.15,4.75
					c14.2,110.53,88.53,215.67,89.28,216.72c1.76,2.47,1.19,5.9-1.28,7.67C2883.83,2253.36,2882.71,2253.69,2881.61,2253.69z"/>
			</g>
			<g>
				
					<ellipse transform="matrix(0.9925 -0.1222 0.1222 0.9925 -130.6745 426.3406)" fill="#010101" cx="3410.93" cy="1278.66" rx="47.93" ry="47.93"/>
			</g>
			<g>
				<circle fill="#010101" cx="3313.17" cy="1206.29" r="45.86"/>
			</g>
			<g>
				<circle fill="#010101" cx="3341.86" cy="1282.85" r="36.16"/>
			</g>
			<g>
				<circle fill="#010101" cx="3375.81" cy="1219.75" r="40.19"/>
			</g>
			<g>
				
					<ellipse transform="matrix(0.9871 -0.1602 0.1602 0.9871 -152.3709 535.9457)" fill="#010101" cx="3248.06" cy="1213.07" rx="37.65" ry="37.65"/>
			</g>
			<g>
				<path fill="#010101" d="M3385.25,1258.76c-25.19,0-45.69-20.5-45.69-45.69c0-25.19,20.5-45.69,45.69-45.69
					s45.69,20.5,45.69,45.69C3430.94,1238.26,3410.44,1258.76,3385.25,1258.76z M3385.25,1178.37c-19.13,0-34.7,15.57-34.7,34.7
					c0,19.13,15.57,34.7,34.7,34.7s34.7-15.57,34.7-34.7C3419.95,1193.93,3404.38,1178.37,3385.25,1178.37z"/>
			</g>
		</g>
		<g>
			<g>
				<g>
					<g>
						<g>
							
								<rect x="1282.64" y="529.13" transform="matrix(0.1677 -0.9858 0.9858 0.1677 527.8305 1918.3799)" fill="#010101" width="234.9" height="234.9"/>
						</g>
					</g>
				</g>
			</g>
			<g>
				<g>
					<path fill="#FFFFFF" d="M1373.99,688.35c-1.7,0-3.37-0.78-4.44-2.25l-45.45-62.18c-1.79-2.45-1.26-5.89,1.19-7.68
						c2.45-1.79,5.89-1.26,7.68,1.19l42.33,57.91l127.51-85.87c2.52-1.7,5.93-1.03,7.63,1.49c1.7,2.52,1.03,5.93-1.49,7.63
						l-131.9,88.82C1376.12,688.04,1375.05,688.35,1373.99,688.35z"/>
				</g>
			</g>
		</g>
		<g>
			<g>
				<g>
					
						<rect x="2493.82" y="400.08" transform="matrix(0.7554 -0.6552 0.6552 0.7554 314.3634 1804.9446)" fill="#FFFFFF" width="162.54" height="162.54"/>
				</g>
			</g>
			<g>
				<g>
					<g>
						<g>
							<path fill="#010101" d="M2566.94,601.49c-1.54,0-3.07-0.64-4.15-1.89l-106.5-122.79c-1.99-2.29-1.74-5.76,0.55-7.75
								l122.79-106.5c2.29-1.99,5.76-1.74,7.75,0.55l106.5,122.79c0.95,1.1,1.43,2.54,1.33,3.99c-0.1,1.45-0.78,2.81-1.88,3.76
								l-122.79,106.5C2569.5,601.05,2568.22,601.49,2566.94,601.49z M2468.19,473.76l99.3,114.49l114.49-99.3l-99.3-114.49
								L2468.19,473.76z"/>
						</g>
					</g>
				</g>
			</g>
			<g>
				<g>
					<path fill="#010101" d="M2583.02,516.74c-0.1,0-0.21,0-0.32-0.01l-53.21-3.01c-3.03-0.17-5.35-2.77-5.18-5.8
						c0.17-3.03,2.76-5.34,5.8-5.18l47.93,2.72l9.95-104.27c0.29-3.02,2.98-5.24,5.99-4.95c3.02,0.29,5.24,2.97,4.95,5.99
						l-10.45,109.54C2588.21,514.6,2585.83,516.74,2583.02,516.74z"/>
				</g>
			</g>
		</g>
		<g>
			<g>
				<g>
					
						<rect x="3355.69" y="642.14" transform="matrix(0.254 -0.9672 0.9672 0.254 1857.4454 3916.7273)" fill="#F1948A" width="224.22" height="224.22"/>
				</g>
			</g>
			<g>
				<g>
					<g>
						<g>
							<path fill="#010101" d="M3547.76,896.65c-0.46,0-0.93-0.06-1.4-0.18l-216.87-56.95c-1.41-0.37-2.61-1.29-3.35-2.54
								c-0.74-1.26-0.94-2.76-0.57-4.17l56.95-216.87c0.77-2.94,3.78-4.69,6.71-3.92l216.87,56.95c1.41,0.37,2.61,1.29,3.35,2.54
								c0.74,1.26,0.94,2.76,0.57,4.17l-56.95,216.87C3552.42,895.02,3550.19,896.65,3547.76,896.65z M3337.6,830.29l206.24,54.16
								l54.16-206.23l-206.24-54.16L3337.6,830.29z"/>
						</g>
					</g>
				</g>
			</g>
			<g>
				<g>
					<path fill="#FFFFFF" d="M3439.93,792.04c-1.87,0-3.68-0.95-4.71-2.66l-37.98-62.95c-1.57-2.6-0.73-5.98,1.87-7.54
						c2.6-1.57,5.98-0.73,7.54,1.87l35.25,58.42l128.26-70.8c2.66-1.47,6-0.5,7.47,2.16c1.47,2.66,0.5,6-2.16,7.47l-132.89,73.35
						C3441.74,791.82,3440.82,792.04,3439.93,792.04z"/>
				</g>
			</g>
		</g>
		<g>
			<g>
				<g>
					<g>
						<g>
							
								<rect x="1704.71" y="1173.41" transform="matrix(0.8585 -0.5128 0.5128 0.8585 -396.317 1103.1703)" fill="#F1948A" width="192.85" height="192.85"/>
						</g>
					</g>
				</g>
			</g>
			<g>
				<g>
					<path fill="#010101" d="M1767.8,1407.56c-1.87,0-3.69-0.96-4.72-2.68l-98.88-165.57c-1.56-2.61-0.71-5.98,1.9-7.54
						l165.57-98.88c2.61-1.56,5.98-0.71,7.54,1.9l98.88,165.57c0.75,1.25,0.97,2.75,0.61,4.16c-0.36,1.41-1.26,2.63-2.51,3.37
						l-165.57,98.88C1769.73,1407.31,1768.76,1407.56,1767.8,1407.56z M1676.45,1238.4l93.25,156.13l156.13-93.25l-93.25-156.13
						L1676.45,1238.4z"/>
				</g>
			</g>
			<g>
				<g>
					<path fill="#FFFFFF" d="M1804.19,1311.9c-0.42,0-0.85-0.05-1.27-0.15l-61.53-14.58c-2.95-0.7-4.78-3.66-4.08-6.61
						c0.7-2.95,3.66-4.78,6.61-4.08l56.38,13.36l33.56-120.68c0.81-2.92,3.84-4.64,6.77-3.82c2.92,0.81,4.64,3.84,3.82,6.77
						l-34.98,125.78C1808.8,1310.3,1806.6,1311.9,1804.19,1311.9z"/>
				</g>
			</g>
		</g>
		<g>
			<g>
				<g>
					<path fill="#FFFFFF" d="M2855.64,2744.78c0,0,10.93-262.56-110.44-345.33H1911.5l-86.92,345.33H2855.64z"/>
				</g>
				<g>
					<path fill="#010101" d="M1824.59,2750.28c-0.44,0-0.9-0.05-1.35-0.17c-2.94-0.74-4.73-3.73-3.99-6.67l86.92-345.33
						c0.61-2.44,2.81-4.15,5.33-4.15h833.69c1.1,0,2.18,0.33,3.1,0.96c28.54,19.47,52.23,50.15,70.39,91.19
						c14.38,32.5,25.38,71.58,32.67,116.16c12.39,75.67,9.8,142.08,9.77,142.74c-0.13,3.03-2.68,5.39-5.72,5.26
						c-3.03-0.13-5.39-2.69-5.26-5.72c0.03-0.65,2.56-66.11-9.67-140.7c-11.1-67.68-36.93-156.87-97-198.91h-827.69l-85.87,341.18
						C1829.29,2748.62,1827.05,2750.28,1824.59,2750.28z"/>
				</g>
				<g>
					<path fill="#010101" d="M2309.82,2750.28c-0.1,0-0.21,0-0.32-0.01c-3.03-0.17-5.35-2.77-5.18-5.8l7.75-137.02
						c2.65-46.83-18.51-91.12-56.61-118.48c-2.47-1.77-3.03-5.2-1.26-7.67c1.77-2.46,5.2-3.03,7.67-1.26
						c20.09,14.43,36.34,33.85,47,56.17c10.66,22.32,15.56,47.16,14.16,71.86l-7.75,137.02
						C2315.13,2748.02,2312.71,2750.28,2309.82,2750.28z"/>
				</g>
			</g>
			<g>
				<path fill="#010101" d="M3146.98,2010.01c-88.77-159.3-202.77-459.71-460.37-534.55c-206.62-60.02-433.34-80.53-640.19-33.45
					c-90.69,20.64-179.78,56.28-252.19,115.8c-69.57,57.24-126.4,127.71-175.19,203.11c-7.32,11.31-368.05,489.49-175.52,697.03
					c145.36,156.69,408.36,26.35,467.99-58.5h838.84c166.95,171.9,383.43,167.48,468.85,27.58
					C3273.39,2338.26,3248.36,2191.95,3146.98,2010.01z"/>
			</g>
			<g>
				<path fill="#FFFFFF" d="M2314.17,1634.74c112.6,0,247.77-107.49,320.14-173.47c-190.35-48.3-394.47-62.09-582.54-20.41
					C2087.03,1497.69,2185.41,1634.74,2314.17,1634.74z"/>
			</g>
			<g>
				<path fill="#010101" d="M3104.17,727.12c-18.61-32.52-44.23-61.16-75.76-83.94c-103.49-74.8-246.2-64.28-355.4-7.96
					c-8.56,4.41-16.93,9.2-25.11,14.27c-50.67,31.39-95.53,74.49-119.19,130.05c-9.2,21.59-11.33,46.12-24.24,66.2
					c-12.07,18.76-30.83,31.68-51.5,39.38c-42.45,15.81-89.25,11.58-132.23,25.25c-60.17,19.14-120.62,60.2-135.35,111.74
					c0,0-103.58,10.31-110.2,102.6c-4.92,68.56,33.63,107.5,92.77,120.39c31.37,6.83,63.18,17.4,94.64,9.99l47.5,18.78
					c12.33,22.1,25.18,44.28,43.12,62.34c15.97,16.07,27.97,31.35,50.36,35.67c0.73,0.79,15.64-0.79,16.87-0.46
					c65.31,17.55,132.74-7.55,176.05-59.07c11.42-13.58,19.74-29.02,27.62-44.83c8.07-16.21,16.11-33.25,29.25-46.08
					c29.1-28.43,75.22-25.97,112.87-27.34c44.59-1.62,89.57-3.49,133.24-13.36c38.2-8.63,74.4-23.69,106.04-46.95
					c87.42-64.28,136.73-176.2,133.25-283.88C3137.35,805.88,3125.27,764,3104.17,727.12z"/>
			</g>
			<g>
				<path fill="#010101" d="M2492.94,1378.64c-14.63,0-29.22-1.91-43.49-5.74c-2.93-0.79-4.67-3.8-3.88-6.73
					c0.79-2.93,3.8-4.67,6.73-3.88c61.51,16.53,126.81-5.42,170.41-57.29c10.43-12.41,18.3-26.46,26.9-43.74l1.4-2.81
					c7.81-15.74,15.89-32.01,28.93-44.75c27.33-26.7,67.74-27.67,103.39-28.53c4.55-0.11,8.85-0.21,13.11-0.37
					c41.15-1.49,87.79-3.19,132.23-13.23c39.68-8.97,74.66-24.45,103.99-46.02c83.09-61.1,134.52-170.73,131.02-279.28
					c-1.36-42.3-13.08-83.87-33.87-120.22c-18.5-32.34-43.47-60-74.21-82.22c-99.4-71.84-250.03-72.18-358.16-0.8
					c-2.53,1.67-5.94,0.97-7.61-1.56c-1.67-2.53-0.97-5.94,1.56-7.61c53.26-35.16,119.51-54.69,186.53-54.99
					c68.31-0.29,133.7,19.6,184.12,56.05c32.01,23.14,58.02,51.96,77.31,85.67c21.68,37.9,33.9,81.24,35.32,125.32
					c1.76,54.45-9.67,110.02-33.05,160.7c-23.95,51.93-59.38,96.12-102.45,127.79c-30.56,22.47-66.92,38.58-108.08,47.88
					c-45.44,10.27-92.62,11.98-134.26,13.5c-4.33,0.16-8.66,0.26-13.25,0.37c-33.63,0.81-71.74,1.73-95.98,25.41
					c-11.7,11.44-19.36,26.86-26.76,41.77l-1.4,2.82c-8.96,17.99-17.2,32.68-28.33,45.92c-22.23,26.45-50.65,46.19-82.18,57.09
					C2530.68,1375.47,2511.79,1378.64,2492.94,1378.64z"/>
			</g>
			<g>
				<path fill="#010101" d="M1619.89,2536.8c-30.4,0-59-4.46-85.29-13.32c-36.47-12.29-68.47-33.08-95.11-61.79
					c-43.15-46.52-62.37-109.99-57.11-188.64c4.23-63.31,24.32-136.89,59.71-218.69c39.78-91.95,99.89-195.69,169.25-292.1
					c1.51-2.1,2.82-3.91,3.08-4.33c55.22-85.33,112.89-152.18,176.31-204.36c65.87-54.14,151.48-93.47,254.46-116.92
					c99.79-22.71,208.05-30.64,321.75-23.57c105.27,6.55,213.34,25.76,321.2,57.1c220.32,64.01,336.09,290.15,420.62,455.27
					c15.14,29.57,29.43,57.5,43.02,81.88c50.7,90.99,82.69,173.48,95.07,245.19c12.48,72.3,4.76,131.97-22.96,177.37
					c-36.09,59.11-95.97,96.14-168.61,104.26c-49.13,5.49-102.44-2.72-154.17-23.75c-54.92-22.33-106.41-57.8-153.08-105.45h-833.71
					c-20.17,27.33-59.24,57.71-105.28,81.75c-53.95,28.17-113.36,45.7-167.27,49.35C1634.39,2536.55,1627.09,2536.8,1619.89,2536.8z
					 M2287.62,1421.38c-77.6,0-158.55,7.46-239.99,25.99c-101.3,23.06-185.38,61.64-249.92,114.69
					c-62.53,51.45-119.47,117.48-174.06,201.85c-0.4,0.62-1.27,1.83-3.39,4.77c-68.92,95.79-128.61,198.8-168.08,290.05
					c-34.89,80.64-54.68,153-58.83,215.05c-5.05,75.52,13.19,136.23,54.2,180.44c47.95,51.69,114.86,76.2,193.48,70.87
					c52.43-3.55,110.29-20.65,162.92-48.13c45.86-23.95,84.39-54.1,103.05-80.66c1.03-1.46,2.71-2.34,4.5-2.34h838.84
					c1.49,0,2.91,0.6,3.94,1.67c80.86,83.26,177.63,129.26,269.76,129.26c10.07,0,20.08-0.55,30.01-1.66
					c69.19-7.73,126.17-42.92,160.45-99.06c26.29-43.06,33.52-100.18,21.51-169.77c-12.17-70.48-43.74-151.8-93.84-241.71
					c-13.68-24.55-28.02-52.56-43.2-82.22c-83.62-163.34-198.14-387.04-413.91-449.73
					C2580.78,1450.45,2440.77,1421.38,2287.62,1421.38z"/>
			</g>
			<g>
				<path fill="#FFFFFF" d="M2579.62,2018.28c-3.03,0-5.5-2.46-5.5-5.5l-0.01-396.57c0-3.04,2.46-5.5,5.5-5.5
					c3.03,0,5.5,2.46,5.5,5.5l0.01,396.57C2585.11,2015.82,2582.65,2018.28,2579.62,2018.28z"/>
			</g>
			<g>
				
					<ellipse transform="matrix(0.7071 -0.7071 0.7071 0.7071 -150.2862 1963.4159)" fill="#010101" cx="2294.91" cy="1163.12" rx="160.94" ry="160.94"/>
			</g>
			<g>
				<path fill="#FFFFFF" d="M2420.45,1456.09v-84.68c-92.71-35.62-73.84-183.25-73.84-183.25c-84.72,7.01-94.98-85.79-103.11-120.58
					c-1.24-5.29-5.77-9.25-11.2-9.5c-49.23-2.26-86.74,35.36-89.4,70.05c-9.05,118.15-36.15,235.88,90.24,236.86v91.12H2420.45z"/>
			</g>
			<g>
				<path fill="#010101" d="M2233.15,1435.53c-3.04,0-5.5-2.46-5.5-5.5v-59.69c-33.1-1.15-57.14-10.49-73.38-28.47
					c-33.27-36.82-26.99-103.72-20.34-174.55c1.22-12.97,2.48-26.38,3.49-39.64c2.87-37.46,42.65-77.52,95.13-75.12
					c7.79,0.36,14.49,6.01,16.29,13.74c0.78,3.34,1.59,7.24,2.44,11.36c4.19,20.27,9.94,48.02,23.95,70.3
					c16.32,25.94,39.52,37.29,70.91,34.7c1.65-0.14,3.28,0.48,4.42,1.68c1.15,1.2,1.69,2.85,1.48,4.49
					c-0.05,0.36-4.54,36.8,2.16,76.92c8.81,52.69,31.75,86.51,68.2,100.51c2.12,0.82,3.52,2.86,3.52,5.13v57.16
					c0,3.04-2.46,5.5-5.5,5.5c-3.04,0-5.5-2.46-5.5-5.5v-53.46c-37.84-16.14-62.56-53.31-71.61-107.79
					c-5.29-31.87-3.88-60.79-2.84-73.34c-32.19,0.82-57.27-12.66-74.56-40.15c-15.07-23.96-21.29-54.03-25.41-73.92
					c-0.84-4.05-1.63-7.88-2.38-11.09c-0.69-2.97-3.2-5.13-6.09-5.26c-21.38-0.98-42.1,6.08-58.36,19.87
					c-14.64,12.42-24.1,29.28-25.31,45.11c-1.02,13.35-2.29,26.81-3.51,39.83c-6.42,68.36-12.48,132.92,17.55,166.16
					c14.95,16.54,38.09,24.71,70.76,24.96c3.02,0.02,5.45,2.48,5.45,5.5v65.07C2238.65,1433.07,2236.19,1435.53,2233.15,1435.53z"/>
			</g>
			<g>
				<path fill="#010101" d="M2233.15,1370.46c-3.04,0-5.5-2.46-5.5-5.5c0-3.04,2.46-5.5,5.5-5.5c35.84,0,61.68-2.82,61.94-2.85
					c3.02-0.34,5.73,1.84,6.07,4.86c0.33,3.02-1.84,5.73-4.85,6.07C2296.04,1367.58,2269.64,1370.46,2233.15,1370.46z"/>
			</g>
			<g>
				<path fill="#010101" d="M2233.11,1422.59c0,0,27.18,6.26,49.1-7.61c23.51-14.87,13.49-52.9,13.49-52.9l-62.54,2.88
					L2233.11,1422.59z"/>
			</g>
			<g>
				<g>
					
						<ellipse transform="matrix(0.5807 -0.8141 0.8141 0.5807 1.721 2408.3301)" fill="#FFFFFF" cx="2338.85" cy="1202.49" rx="47.8" ry="47.8"/>
				</g>
				<g>
					<path fill="#010101" d="M2330.73,1217.19c-0.97,0-1.96-0.26-2.85-0.8c-2.59-1.58-3.42-4.96-1.84-7.55l15.64-25.73
						c1.58-2.59,4.96-3.42,7.55-1.84c2.59,1.58,3.42,4.96,1.84,7.55l-15.64,25.73C2334.39,1216.25,2332.58,1217.19,2330.73,1217.19z
						"/>
				</g>
			</g>
			<g>
				
					<ellipse transform="matrix(0.9239 -0.3827 0.3827 0.9239 -289.5442 921.5255)" fill="#010101" cx="2171.63" cy="1188.58" rx="10.72" ry="10.72"/>
			</g>
			<g>
				<path fill="#010101" d="M2268.97,1188.58c0,5.92-4.8,10.72-10.72,10.72c-5.92,0-10.72-4.8-10.72-10.72
					c0-5.92,4.8-10.72,10.72-10.72C2264.17,1177.86,2268.97,1182.66,2268.97,1188.58z"/>
			</g>
			<g>
				<path fill="#010101" d="M2188.02,1277.8c-2.11,0-4.35-0.21-6.74-0.69c-2.98-0.59-4.91-3.49-4.32-6.46
					c0.59-2.98,3.49-4.91,6.46-4.32c13.54,2.7,18.42-6.83,18.93-7.93c1.23-2.78,4.46-4.01,7.24-2.78c2.78,1.23,4.02,4.5,2.79,7.27
					C2209.9,1268.53,2201.89,1277.8,2188.02,1277.8z"/>
			</g>
			<g>
				<g>
					<g>
						<path fill="#F1948A" d="M2259.95,1264.32c-34.09,0-61.82-27.73-61.82-61.82s27.73-61.82,61.82-61.82
							c34.09,0,61.82,27.73,61.82,61.82S2294.04,1264.32,2259.95,1264.32z M2259.95,1151.66c-28.03,0-50.83,22.8-50.83,50.83
							c0,28.03,22.8,50.83,50.83,50.83c28.03,0,50.83-22.8,50.83-50.83C2310.78,1174.47,2287.98,1151.66,2259.95,1151.66z"/>
					</g>
					<g>
						<path fill="#F1948A" d="M2131.51,1264.32c-34.09,0-61.82-27.73-61.82-61.82s27.73-61.82,61.82-61.82
							c34.09,0,61.82,27.73,61.82,61.82S2165.6,1264.32,2131.51,1264.32z M2131.51,1151.66c-28.03,0-50.83,22.8-50.83,50.83
							c0,28.03,22.8,50.83,50.83,50.83c28.03,0,50.83-22.8,50.83-50.83C2182.34,1174.47,2159.54,1151.66,2131.51,1151.66z"/>
					</g>
				</g>
				<g>
					<path fill="#F1948A" d="M2259.95,1151.66h-128.44c-3.04,0-5.5-2.46-5.5-5.5c0-3.04,2.46-5.5,5.5-5.5h128.44
						c3.04,0,5.5,2.46,5.5,5.5C2265.44,1149.2,2262.98,1151.66,2259.95,1151.66z"/>
				</g>
			</g>
			<g>
				<path fill="#010101" d="M2181.58,1255.09c-0.3,0-0.61-0.03-0.92-0.08c-2.99-0.5-5.01-3.34-4.51-6.33l11.97-71.15
					c0.5-2.99,3.34-5.01,6.33-4.51c2.99,0.5,5.01,3.34,4.51,6.33l-11.97,71.15C2186.54,1253.19,2184.21,1255.09,2181.58,1255.09z"/>
			</g>
			<g>
				<path fill="#FFFFFF" d="M3158.25,2088.74c-1.16,0-2.33-0.37-3.33-1.13c-77.17-58.88-146.43-86.79-190.93-99.84
					c-48.22-14.13-78.59-14.35-78.89-14.35c-3.03-0.01-5.49-2.47-5.49-5.5c0-3.03,2.46-5.49,5.49-5.49
					c1.28,0,31.86,0.17,81.45,14.63c45.52,13.28,116.31,41.72,195.04,101.8c2.41,1.84,2.88,5.29,1.04,7.7
					C3161.55,2088,3159.91,2088.74,3158.25,2088.74z"/>
			</g>
			<g>
				<path fill="#FFFFFF" d="M2750.35,2404.95c-1.69,0-3.36-0.78-4.44-2.25c-26.23-35.81-46.29-73.51-59.6-112.06
					c-10.67-30.89-17.06-62.4-19-93.63c-3.31-53.37,7.44-87.14,7.9-88.55c0.94-2.89,4.04-4.47,6.93-3.53
					c2.88,0.94,4.46,4.04,3.53,6.92c-0.11,0.33-10.63,33.59-7.35,85.04c3.02,47.44,18.74,120.53,76.46,199.31
					c1.79,2.45,1.26,5.89-1.19,7.68C2752.62,2404.6,2751.48,2404.95,2750.35,2404.95z"/>
			</g>
			<g>
				<path fill="#FFFFFF" d="M1759.05,1839.8l-115.31,137.64c-54.19,65.28-41.49,162.85,27.6,212.09
					c63.79,45.46,152.09,32.46,200.07-29.45l123.11-158.84L1759.05,1839.8z"/>
			</g>
			<g>
				<path fill="#010101" d="M1755.83,2222.15c-31.29,0-61.79-9.68-87.68-28.14c-34.67-24.71-56.79-61.57-62.29-103.8
					c-5.49-42.22,6.46-83.52,33.65-116.28l115.32-137.66c1.82-2.17,4.99-2.6,7.32-1l235.47,161.45c1.25,0.86,2.09,2.19,2.32,3.68
					c0.23,1.5-0.16,3.02-1.09,4.22l-123.11,158.84c-24.08,31.07-58.76,51.33-97.65,57.06
					C1770.67,2221.61,1763.23,2222.15,1755.83,2222.15z M1760.06,1847.16l-112.1,133.82c-25.21,30.36-36.29,68.66-31.19,107.82
					s25.61,73.34,57.77,96.26c24.8,17.67,53.32,26.22,81.57,26.22c41.94,0,83.27-18.82,110.97-54.56l119.54-154.23L1760.06,1847.16z
					"/>
			</g>
			<g>
				<g>
					<g>
						<path fill="#FFFFFF" d="M1879.22,2140.02h766.34c17.51,0,31.7-14.19,31.7-31.7v-482.14c0-17.51-14.19-31.7-31.7-31.7h-766.34
							c-17.51,0-31.7,14.19-31.7,31.7v482.14C1847.52,2125.83,1861.72,2140.02,1879.22,2140.02z"/>
					</g>
					<g>
						<path fill="#010101" d="M2646.39,2145.52h-768c-20.05,0-36.36-16.31-36.36-36.36v-483.81c0-20.05,16.31-36.36,36.36-36.36h768
							c20.05,0,36.36,16.31,36.36,36.36v483.81C2682.75,2129.21,2666.44,2145.52,2646.39,2145.52z M1878.39,1599.98
							c-13.99,0-25.37,11.38-25.37,25.37v483.81c0,13.99,11.38,25.37,25.37,25.37h768c13.99,0,25.37-11.38,25.37-25.37v-483.81
							c0-13.99-11.38-25.37-25.37-25.37H1878.39z"/>
					</g>
					<g>
						
							<ellipse transform="matrix(0.7071 -0.7071 0.7071 0.7071 -657.7086 2146.6575)" fill="#F1948A" cx="2262.39" cy="1867.25" rx="66.22" ry="66.22"/>
					</g>
				</g>
				<g>
					<g>
						<path fill="#FFFFFF" d="M2037.49,1839.8c0.53-41.67-47.87-57.96-92.52-61.21c38.27-6.34,91.64-15.65,90.21-59.91
							c-1.26-39.04-50.55-53.91-93.55-53.2c36.79-11.6,76.33-32.62,70.38-68.89c-10.82-65.94-148.45-35.53-194.82-17.52
							c-91.19,35.42-61.1,105.68-61.1,105.68s-22.82,15.78-20.55,51.73c2.34,37.13,31.98,50.08,31.98,50.08
							s-30.51,14.86-30.51,53.39c0,45.89,30.98,62.27,30.98,62.27s-28.42,16.25-26.44,54.1c2.34,44.8,65.73,86.27,105.97,94.06
							l0.46-39.09c0,0,143.85,0.36,149.26-67.33c1.85-23.2-12.71-36.03-32.65-42.88C2001.5,1891.96,2037.02,1876.79,2037.49,1839.8z
							"/>
					</g>
					<g>
						<path fill="#010101" d="M1847.52,2055.89c-0.35,0-0.7-0.03-1.05-0.1c-21.79-4.22-48.46-17.35-69.59-34.26
							c-25.19-20.16-39.69-43.21-40.83-64.91c-1.52-29.14,13.4-46.48,22.5-54.26c-9.93-8.07-27.06-27.1-27.06-62.39
							c0-28.93,15.68-45.56,25.63-53.19c-9.88-7.04-25.35-22.34-27.09-49.93c-1.92-30.39,12.73-47.56,19.56-53.85
							c-2.8-8.78-7.9-30.98,2.16-54.91c9.83-23.39,31.17-41.6,63.42-54.13c37.08-14.4,133.5-37.32,178.52-11.62
							c13.35,7.62,21.33,18.85,23.71,33.37c4.39,26.74-12.64,49.19-49.48,65.75c38.48,5.05,71.63,23.13,72.73,57.05
							c0.7,21.72-10.51,38.3-33.32,49.3c-9.06,4.37-19.36,7.58-29.61,10.06c11.25,2.61,22.8,6.45,33.08,12.11
							c21.31,11.72,32.43,28.97,32.16,49.9c-0.24,18.61-8.69,33.93-25.11,45.51c-9.45,6.66-21.48,12.18-37.23,17
							c19.69,11.75,23.14,28.75,22.08,42.03c-5.18,64.91-122.05,71.63-149.3,72.31l-0.39,33.73c-0.02,1.63-0.76,3.17-2.02,4.2
							C1850.01,2055.46,1848.78,2055.89,1847.52,2055.89z M1936.97,1561.68c-41.56,0-91.16,12.17-117.8,22.52
							c-29.3,11.38-48.54,27.53-57.21,47.99c-10.95,25.86-0.93,50.17-0.83,50.42c1.01,2.4,0.21,5.19-1.93,6.67
							c-0.8,0.57-20.22,14.69-18.19,46.87c2.09,33.15,27.63,44.92,28.71,45.4c1.95,0.87,3.23,2.8,3.27,4.93
							c0.04,2.14-1.16,4.1-3.08,5.04c-1.1,0.55-27.42,14-27.42,48.45c0,41.77,26.93,56.8,28.08,57.42c1.76,0.95,2.87,2.78,2.89,4.78
							c0.02,1.99-1.02,3.85-2.76,4.84c-1.02,0.6-25.44,15.22-23.68,49.05c2.01,38.44,55.89,76.98,95.07,87.46l0.38-32.26
							c0.04-3.01,2.49-5.43,5.5-5.43c2.2,0,138.85-0.59,143.78-62.27c1.43-17.88-8.04-30.06-28.95-37.25
							c-2.3-0.79-3.81-3.01-3.7-5.44c0.11-2.43,1.8-4.51,4.17-5.09c47.18-11.67,68.37-28.95,68.72-56.03
							c0.22-16.85-8.69-30.35-26.47-40.13c-19.22-10.57-43.76-14.28-60.95-15.54c-2.78-0.2-4.96-2.45-5.09-5.23
							c-0.13-2.78,1.85-5.22,4.59-5.67c45.79-7.58,86.8-17.44,85.61-54.31c-0.51-15.76-9.93-28.11-27.99-36.72
							c-15.66-7.46-37.54-11.53-59.98-11.16c-2.7,0.06-5.08-1.92-5.52-4.61c-0.44-2.69,1.17-5.3,3.77-6.12
							c33.36-10.51,71.99-29.94,66.61-62.76c-1.85-11.24-7.84-19.62-18.31-25.6C1975.42,1564.55,1957.14,1561.68,1936.97,1561.68z"
							/>
					</g>
					<g>
						<path fill="#010101" d="M1756.08,1690.25c-2.78,0-5.17-2.1-5.46-4.93c-0.31-3.02,1.88-5.72,4.9-6.03l185.54-19.27
							c3.02-0.32,5.72,1.88,6.03,4.9c0.31,3.02-1.88,5.72-4.9,6.03l-185.54,19.27C1756.46,1690.24,1756.27,1690.25,1756.08,1690.25z
							"/>
					</g>
					<g>
						<path fill="#010101" d="M1767.51,1792.07c-2.92,0-5.35-2.3-5.49-5.25c-0.14-3.03,2.21-5.6,5.24-5.74l177.45-7.98
							c3.02-0.14,5.6,2.21,5.74,5.24s-2.21,5.6-5.24,5.74l-177.45,7.98C1767.68,1792.07,1767.59,1792.07,1767.51,1792.07z"/>
					</g>
					<g>
						<path fill="#010101" d="M1767.99,1907.72c-3.02,0-5.48-2.44-5.49-5.46c-0.02-3.04,2.43-5.51,5.46-5.53l196.61-1.13
							c3.05,0,5.51,2.44,5.53,5.46c0.02,3.04-2.43,5.51-5.46,5.53l-196.61,1.13C1768.01,1907.72,1768,1907.72,1767.99,1907.72z"/>
					</g>
				</g>
			</g>
			<g>
				<path fill="#FFFFFF" d="M1911.5,2404.95c-0.87,0-1.76-0.21-2.58-0.65c-2.68-1.43-3.69-4.76-2.26-7.43
					c49.49-92.82,59.99-182.94,60.08-242.19c0.1-64.33-11.7-107.23-11.82-107.66c-0.82-2.92,0.89-5.96,3.81-6.77
					c2.92-0.82,5.95,0.88,6.77,3.8c0.5,1.79,12.28,44.49,12.23,110.23c-0.03,38.56-4.17,77.02-12.32,114.3
					c-10.19,46.62-26.69,91.52-49.05,133.46C1915.36,2403.89,1913.46,2404.95,1911.5,2404.95z"/>
			</g>
			<g>
				<path fill="#FFFFFF" d="M1481.58,2062.46c-1.01,0-2.04-0.28-2.96-0.87c-2.56-1.64-3.3-5.04-1.66-7.59
					c32.62-50.94,90.12-87.66,132.61-109.49c45.83-23.55,84.63-35.36,85.02-35.47c2.91-0.88,5.97,0.77,6.85,3.67
					c0.88,2.91-0.77,5.97-3.67,6.85c-0.38,0.11-38.38,11.7-83.35,34.82c-41.22,21.2-96.93,56.72-128.19,105.55
					C1485.17,2061.56,1483.39,2062.46,1481.58,2062.46z"/>
			</g>
			<g>
				<path fill="#010101" d="M1847.98,2016.8h-32.19c-3.04,0-5.5-2.46-5.5-5.5s2.46-5.5,5.5-5.5h32.19c3.04,0,5.5,2.46,5.5,5.5
					S1851.02,2016.8,1847.98,2016.8z"/>
			</g>
			<g>
				<path fill="#FFFFFF" d="M2855.27,1895.3c0,0-62.24-199.71-113.87-262.17c-51.63-62.46-156.94-102.68-215.84-101.71
					c-58.9,0.97-83.44,12.01-85.92,43.99c-2.93,37.75,39.53,53.66,85.92,55.02c46.4,1.36,98.92,30.81,98.92,30.81
					s-130.46-1.84-174.36,6.49c-32.99,6.26-51.94,32.17-49.36,52.79c3.49,27.96,22.09,52.28,84.56,52.65
					c-38.53,6.63-68.37,17.2-66.52,54.86c2.21,44.92,44.36,49.49,83.21,48.01c-39.39,6.48-54.86,28.27-51.18,52.86
					c6.29,42,78.03,53.22,142.48,47.23c-4.22,43.75,13.74,83.72,67.41,88.11l11.19,28.2c36.61,92.25,156.53,115.46,224.91,43.52
					c46.66-49.09,50.08-125.03,8.02-178.1L2855.27,1895.3z"/>
			</g>
			<g>
				<path fill="#010101" d="M2798.56,2183.78c-9,0-18.08-0.86-27.14-2.61c-47.61-9.21-86.72-41.62-104.6-86.7l-9.96-25.08
					c-22.24-2.48-39.63-11.06-51.73-25.53c-12.89-15.42-18.98-36.66-17.76-61.72c-33.11,2.49-64.34,0.28-88.55-6.33
					c-31.73-8.66-50.2-24.6-53.42-46.1c-2.15-14.36,1.57-27.4,10.77-37.7c3.88-4.35,8.62-8.11,14.19-11.27
					c-8.94-1.01-17.83-2.9-25.82-6.25c-19.62-8.23-30.12-23.77-31.23-46.2c-1.49-30.36,15.82-44.69,38.33-52.67
					c-13.89-2.76-25.14-7.42-34-14.03c-12.65-9.44-20.16-23.03-22.33-40.39c-2.86-22.86,16.9-51.87,53.79-58.87
					c32.71-6.21,110.99-6.86,151.08-6.76c-19.19-8.38-48.22-18.87-74.78-19.65c-21.38-0.63-60.2-4.96-79.97-26.95
					c-8.5-9.45-12.29-20.89-11.27-33.99c1.4-18.02,9.52-30.49,24.83-38.12c14.14-7.04,34.64-10.42,66.48-10.94
					c62.73-1.03,168.58,41.31,220.16,103.7c50.41,60.98,109.25,246.09,114.57,263.05l48.94,61.77
					c21.16,26.71,31.98,60.17,30.44,94.21c-1.53,34.04-15.31,66.39-38.78,91.09C2873.76,2168.21,2836.89,2183.78,2798.56,2183.78z
					 M2593.32,1970.63c1.45,0,2.86,0.58,3.89,1.62c1.16,1.16,1.73,2.78,1.58,4.41c-1.68,17.38-0.47,41.92,14.78,60.16
					c10.75,12.86,26.77,20.24,47.61,21.95c2.08,0.17,3.89,1.51,4.66,3.45l11.19,28.2c16.5,41.57,52.56,71.47,96.48,79.96
					c43.91,8.5,88.53-5.78,119.34-38.2c44.5-46.81,47.8-120.28,7.69-170.9l-49.58-62.56c-0.42-0.53-0.74-1.13-0.94-1.78
					c-0.62-1.99-62.51-199.39-112.86-260.3c-48.17-58.27-151.4-100.69-211.51-99.72c-64.92,1.06-78.69,15.08-80.53,38.92
					c-0.78,10.12,1.99,18.56,8.49,25.79c12.44,13.84,38.72,22.33,72.11,23.31c47.2,1.38,99.26,30.28,101.45,31.51
					c2.19,1.23,3.27,3.79,2.62,6.22c-0.65,2.43-2.9,4.09-5.38,4.07c-1.3-0.02-130.4-1.74-173.26,6.39
					c-29.67,5.63-47.19,28.7-44.93,46.71c2.54,20.35,13.51,47.45,79.13,47.83c2.85,0.02,5.21,2.21,5.44,5.04
					c0.23,2.84-1.74,5.38-4.55,5.87c-40.43,6.95-63.53,17.23-61.96,49.17c1.57,32,24.76,44.8,77.51,42.79
					c2.9-0.12,5.39,2.05,5.68,4.94s-1.71,5.5-4.58,5.97c-33.25,5.47-50.25,22.46-46.63,46.63c5.61,37.45,74.71,48.32,136.54,42.57
					C2592.98,1970.64,2593.15,1970.63,2593.32,1970.63z"/>
			</g>
			<g>
				<path fill="#010101" d="M2667.4,1778.66c-0.27,0-0.55-0.02-0.83-0.06c-71.65-10.81-179.61-0.08-180.69,0.03
					c-3.02,0.31-5.72-1.89-6.02-4.91c-0.31-3.02,1.89-5.72,4.91-6.02c1.1-0.11,110.41-10.99,183.44,0.03c3,0.45,5.07,3.25,4.61,6.25
					C2672.41,1776.71,2670.07,1778.66,2667.4,1778.66z"/>
			</g>
			<g>
				<path fill="#010101" d="M2676.52,1881.75c-0.09,0-0.19,0-0.29-0.01c-1.23-0.06-123.82-6.23-173.57-0.25
					c-3.02,0.36-5.75-1.79-6.11-4.8c-0.36-3.01,1.79-5.75,4.8-6.11c50.69-6.09,170.38-0.07,175.45,0.19
					c3.03,0.16,5.36,2.74,5.21,5.77C2681.86,1879.47,2679.43,1881.75,2676.52,1881.75z"/>
			</g>
			<g>
				<path fill="#010101" d="M2676.53,1671.91c-0.21,0-0.43-0.01-0.64-0.04c-12.31-1.44-51.51-5.12-51.91-5.15
					c-3.02-0.28-5.24-2.96-4.96-5.98c0.28-3.02,2.97-5.24,5.98-4.96c1.62,0.15,39.72,3.73,52.16,5.18c3.01,0.35,5.17,3.08,4.82,6.1
					C2681.65,1669.85,2679.28,1671.91,2676.53,1671.91z"/>
			</g>
		</g>
		<g>
			<g>
				<g>
					<path fill="#010101" d="M1742.66,980.96c-1.41,0-2.81-0.54-3.89-1.61l-76.23-76.23c-2.15-2.15-2.15-5.63,0-7.77
						c2.15-2.15,5.63-2.15,7.77,0l76.23,76.23c2.15,2.15,2.15,5.63,0,7.77C1745.47,980.42,1744.06,980.96,1742.66,980.96z"/>
				</g>
			</g>
			<g>
				<g>
					<path fill="#010101" d="M1666.43,980.96c-1.41,0-2.81-0.54-3.89-1.61c-2.15-2.15-2.15-5.63,0-7.77l76.23-76.23
						c2.15-2.15,5.63-2.15,7.77,0c2.15,2.15,2.15,5.63,0,7.77l-76.23,76.23C1669.24,980.42,1667.83,980.96,1666.43,980.96z"/>
				</g>
			</g>
		</g>
		<g>
			<path fill="#010101" d="M2918.25,1425.1c-40.74,0-73.89-33.15-73.89-73.89c0-40.74,33.15-73.89,73.89-73.89
				c40.74,0,73.89,33.15,73.89,73.89C2992.14,1391.95,2959,1425.1,2918.25,1425.1z M2918.25,1288.3c-34.68,0-62.9,28.22-62.9,62.9
				s28.22,62.9,62.9,62.9c34.68,0,62.9-28.22,62.9-62.9S2952.94,1288.3,2918.25,1288.3z"/>
		</g>
		<g>
			
				<ellipse transform="matrix(0.7071 -0.7071 0.7071 0.7071 173.8503 1607.7697)" fill="#A93226" cx="2027.67" cy="594.03" rx="145.46" ry="145.46"/>
		</g>
	</g>
</g>
</svg>
